<?xml version="1.0" encoding="UTF-8" standalone="no"?>
<svg
   xmlns:dc="http://purl.org/dc/elements/1.1/"
   xmlns:cc="http://creativecommons.org/ns#"
   xmlns:rdf="http://www.w3.org/1999/02/22-rdf-syntax-ns#"
   xmlns:svg="http://www.w3.org/2000/svg"
   xmlns="http://www.w3.org/2000/svg"
   xmlns:sodipodi="http://sodipodi.sourceforge.net/DTD/sodipodi-0.dtd"
   xmlns:inkscape="http://www.inkscape.org/namespaces/inkscape"
   version="1.1"
   id="Layer_1"
   x="0px"
   y="0px"
   viewBox="0 0 1086.639 1086.7432"
   xml:space="preserve"
   sodipodi:docname="avatar_icon.svg"
   inkscape:version="1.0.1 (3bc2e813f5, 2020-09-07)"
   width="1086.639"
   height="1086.7432"><metadata
   id="metadata53"><rdf:RDF><cc:Work
       rdf:about=""><dc:format>image/svg+xml</dc:format><dc:type
         rdf:resource="http://purl.org/dc/dcmitype/StillImage" /></cc:Work></rdf:RDF></metadata><defs
   id="defs51"><marker
     style="overflow:visible"
     id="marker1427"
     refX="0.0"
     refY="0.0"
     orient="auto"
     inkscape:stockid="Arrow1Lstart"
     inkscape:isstock="true"><path
       transform="scale(0.8) translate(12.5,0)"
       style="fill-rule:evenodd;stroke:none;stroke-width:1pt;stroke-opacity:1;fill:#ffa31d;fill-opacity:1"
       d="M 0.0,0.0 L 5.0,-5.0 L -12.5,0.0 L 5.0,5.0 L 0.0,0.0 z "
       id="path1425" /></marker><marker
     style="overflow:visible"
     id="marker1405"
     refX="0.0"
     refY="0.0"
     orient="auto"
     inkscape:stockid="Arrow1Lstart"
     inkscape:isstock="true"><path
       transform="scale(0.8) translate(12.5,0)"
       style="fill-rule:evenodd;stroke:#000000;stroke-width:1.0pt"
       d="M 0.0,0.0 L 5.0,-5.0 L -12.5,0.0 L 5.0,5.0 L 0.0,0.0 z "
       id="path1403" /></marker><marker
     style="overflow:visible"
     id="marker1389"
     refX="0.0"
     refY="0.0"
     orient="auto"
     inkscape:stockid="Arrow1Lstart"
     inkscape:isstock="true"><path
       transform="scale(0.8) translate(12.5,0)"
       style="fill-rule:evenodd;stroke:#000000;stroke-width:1.0pt"
       d="M 0.0,0.0 L 5.0,-5.0 L -12.5,0.0 L 5.0,5.0 L 0.0,0.0 z "
       id="path1387" /></marker><marker
     style="overflow:visible"
     id="Arrow1Lstart"
     refX="0.0"
     refY="0.0"
     orient="auto"
     inkscape:stockid="Arrow1Lstart"
     inkscape:isstock="true"><path
       transform="scale(0.8) translate(12.5,0)"
       style="fill-rule:evenodd;stroke:#000000;stroke-width:1.0pt"
       d="M 0.0,0.0 L 5.0,-5.0 L -12.5,0.0 L 5.0,5.0 L 0.0,0.0 z "
       id="path1117" /></marker></defs><sodipodi:namedview
   pagecolor="#ffffff"
   bordercolor="#666666"
   borderopacity="1"
   objecttolerance="10"
   gridtolerance="10"
   guidetolerance="10"
   inkscape:pageopacity="0"
   inkscape:pageshadow="2"
   inkscape:window-width="1920"
   inkscape:window-height="1027"
   id="namedview49"
   showgrid="false"
   inkscape:zoom="0.49033372"
   inkscape:cx="642.04298"
   inkscape:cy="473.86663"
   inkscape:window-x="-8"
   inkscape:window-y="-8"
   inkscape:window-maximized="1"
   inkscape:current-layer="layer1"
   inkscape:document-rotation="0" />
<style
   type="text/css"
   id="style2">
	.st0{fill:#FEFEF8;}
	.st1{fill:#2B2471;}
	.st2{fill:#F6AAB1;}
	.st3{fill:#F5ABB2;}
	.st4{fill:#F4ABB2;}
	.st5{fill:#322D60;}
	.st6{fill:#FDFDF7;}
	.st7{fill:#FAFAF7;}
	.st8{fill:#FCF8F2;}
	.st9{fill:#FBF2EB;}
	.st10{fill:#2D2670;}
	.st11{fill:#F6A9B0;}
	.st12{fill:#F6A9AF;}
	.st13{fill:#2E2870;}
	.st14{fill:#FBFBF7;}
</style>
<g
   inkscape:groupmode="layer"
   id="layer1"
   inkscape:label="Avatar"
   transform="translate(-114.50763,-75.915405)"><circle
     style="fill:#ffa31d;fill-opacity:1;stroke-width:0;marker-end:url(#marker1427)"
     id="path976"
     cy="618.89966"
     cx="658.16241"
     r="542.98425" /><g
     id="g1071"
     style="fill:#fdfdf7;fill-opacity:1" /><g
     id="g46"
     transform="translate(7.5893924,-54.580022)"><g
       id="g965"><path
         class="st5"
         d="m 710.07,412.69 c -8.77,0.98 -17.4,-1.47 -25.84,-2.64 -6.16,-0.86 -12.57,-0.73 -18.76,-2.2 -6.58,-1.56 -13.47,-1.41 -20.25,-1.08 -1.94,0.09 -3.93,0.62 -5.76,1.3 -3.04,1.13 -5.51,0.81 -7.41,-1.99 23.97,-0.8 47.94,-1.74 71.36,5.26 2.09,0.62 4.58,0.1 6.66,1.35 z"
         id="path14" /><path
         class="st5"
         d="m 626.38,406.6 c -1.11,0.04 -2.22,0.08 -3.33,0.11 1.09,-0.48 2.2,-0.55 3.33,-0.11 z"
         id="path16" /><path
         class="st6"
         d="m 588.15,498.23 c 15.32,0 30.64,0.07 45.96,-0.05 3.66,-0.03 6.77,0.83 9.77,2.98 4.79,3.44 9,3.4 13.8,-0.05 3,-2.16 6.16,-2.93 9.79,-2.91 30.48,0.16 60.97,0.22 91.45,0.32 8.26,0.03 11.14,3.51 9.79,11.56 -2.56,15.25 -5.34,30.46 -7.44,45.77 -1.5,10.94 0.58,21.59 5.54,31.51 9.81,19.61 19.8,39.13 29.55,58.77 1.39,2.8 2.93,4 6.06,3.6 3.6,-0.46 8.09,1.58 10.66,-0.61 2.4,-2.06 1.07,-6.6 1.04,-10.02 -0.04,-4.14 1.45,-6.41 5.6,-7.07 2.78,-0.45 5.46,-1.49 8.24,-1.9 11.46,-1.72 19.87,3.8 23.05,14.92 4.01,14.02 0.67,26.98 -5.76,39.45 -2.37,4.6 -5.47,8.7 -9.03,12.49 -7.25,7.71 -15.65,12.35 -26.59,10.5 -2.69,-0.46 -3.77,0.14 -3.99,3.11 -1.29,17.48 -5.11,34.47 -10.24,51.2 -11.54,37.63 -34.95,64.38 -71.86,78.88 -1.54,0.61 -3.05,1.32 -4.59,1.93 -11.7,4.66 -22.99,9.94 -34.07,16.13 -25.87,14.45 -51.68,12.28 -76.04,-4.64 -4.5,-3.13 -9.64,-4.45 -14.56,-6.35 -14.3,-5.52 -28.48,-11.23 -41.35,-19.72 -23.17,-15.28 -36.78,-37.49 -45.58,-63.1 -5.91,-17.19 -10,-34.81 -11.37,-52.98 -0.24,-3.14 -0.92,-4.96 -4.7,-4.25 -10.17,1.91 -18.29,-2.29 -25.07,-9.33 -12.51,-12.99 -18.82,-28.42 -17.25,-46.65 1.46,-16.92 12.73,-24.73 29.12,-20.29 8.71,2.36 8.71,2.36 9.08,11.26 0.06,1.5 0.29,3 0.25,4.49 -0.08,2.45 1.05,3.33 3.37,2.95 0.33,-0.05 0.68,-0.14 0.99,-0.08 9.35,1.83 13.59,-3.07 17.16,-11.13 6.45,-14.57 13.42,-29.01 21.39,-42.79 9.94,-17.18 11.67,-34.9 7.59,-53.9 -2.37,-11.04 -3.81,-22.28 -5.63,-33.43 -1.04,-6.38 2.18,-10.06 8.9,-10.07 15.66,-0.04 31.32,-0.01 46.98,-0.01 -0.01,-0.18 -0.01,-0.33 -0.01,-0.49 z m -8.53,108.1 c -3.64,0.29 -7.29,0.55 -10.93,0.88 -11.91,1.1 -22.74,6.09 -34.05,9.37 -10.11,2.93 -15.6,10.65 -15.04,21.16 0.8,14.89 5.57,28.54 11.67,41.97 4,8.81 10.56,13.84 19.59,16.18 22.4,5.8 44.52,4.58 66.24,-3.2 8.6,-3.08 15.22,-8.87 19.68,-16.87 5.1,-9.15 7.82,-19.04 8.36,-29.5 0.42,-8.11 0.84,-8.49 9.1,-7.92 2.21,0.15 3.42,0.35 3.42,3.31 0,4.79 0.5,9.68 1.53,14.36 3.16,14.43 8.63,27.7 23.4,33.86 21.42,8.94 43.67,9.78 66.11,4.53 6.47,-1.52 13.05,-3.92 16.61,-10.17 8.58,-15.07 14.24,-31.1 14.64,-48.66 0.15,-6.52 -2.51,-11.82 -8.12,-15.03 -4.1,-2.34 -8.32,-4.72 -12.66,-6.46 -25.19,-10.08 -50.53,-10.24 -75.8,-0.05 -1.36,0.55 -3,1.08 -3.85,2.15 -5.15,6.47 -13.49,7.22 -19.97,7.72 -7.29,0.56 -15.63,2.68 -23.28,-2.9 -4.71,-3.43 -11.61,-3.8 -17.41,-6.34 -12.36,-5.41 -25.5,-8.63 -39.24,-8.39 z m 176.33,130.31 c -0.36,-12.49 -9.58,-21.41 -20.93,-21.7 -13.4,-0.35 -21.78,9.64 -22.14,21.22 -0.39,12.45 8.81,22.69 22.69,22.12 11.26,-0.46 19.86,-8.82 20.38,-21.64 z m -210.07,0.02 c -1.66,11.95 9.54,21.68 21.42,21.73 9.57,0.04 21.52,-8.72 20.98,-22.01 -0.54,-13.2 -9.36,-21.19 -21.97,-21.32 -11.26,-0.12 -22.05,10.2 -20.43,21.6 z m 66.88,30.2 c -1.99,-0.1 -3.99,-0.13 -5.98,-0.31 -3.86,-0.35 -7.39,0.24 -7.64,4.89 -0.24,4.58 3.29,5.66 7.04,5.97 7.99,0.66 15.98,0.48 23.81,-1.29 12.46,-2.82 24.83,-3.77 37.47,-0.71 9.22,2.23 18.68,3.05 28.22,1.84 3.66,-0.47 6.72,-1.64 6.38,-5.99 -0.35,-4.4 -3.53,-5.06 -7.24,-4.74 -8.67,0.75 -17.25,0.13 -25.74,-1.82 -11.84,-2.72 -23.64,-2.89 -35.57,-0.18 -6.79,1.53 -13.7,2.77 -20.75,2.34 z m 47.42,-46.7 c 0.09,-5.37 -3.88,-9.52 -9.25,-9.66 -5.52,-0.14 -9.96,4.1 -9.97,9.52 -0.01,5.41 3.99,9.55 9.32,9.67 5.76,0.14 9.8,-3.76 9.9,-9.53 z m -9.47,59.98 c -2.77,0.43 -5.56,0.76 -8.3,1.31 -3.54,0.71 -5.14,3.09 -4.39,6.54 0.7,3.23 3.01,4.57 6.34,3.92 4.27,-0.83 8.51,-0.9 12.81,0 3.02,0.63 5.31,-0.66 6.05,-3.7 0.77,-3.14 -0.49,-5.41 -3.65,-6.62 -2.88,-1.09 -5.85,-1.07 -8.86,-1.45 z"
         id="path18" /><path
         class="st7"
         d="m 512,806.96 c 19.05,29.17 47.49,43.46 78.14,54.51 5.02,1.81 9.72,4.06 14.23,6.99 29.94,19.43 67.32,18.31 96.53,-2.52 6.44,-4.59 14.27,-6.26 21.48,-9.21 18.9,-7.74 36.92,-16.86 51.78,-31.25 5.5,-5.33 10.32,-11.26 15.23,-17.82 4.6,9.6 9.91,18.26 17.55,25.52 -13.8,13.9 -28.91,25.81 -45.62,35.66 -37.75,22.25 -78.43,33.83 -122.35,31.48 -55.69,-2.98 -103.06,-25.07 -142.43,-64.49 -1.75,-1.75 -2.13,-2.82 -0.18,-4.78 6.63,-6.67 11.3,-14.68 15.64,-24.09 z"
         id="path20" /><path
         class="st10"
         d="m 579.62,606.33 c 13.74,-0.24 26.88,2.98 39.24,8.4 5.8,2.54 12.7,2.9 17.41,6.34 7.65,5.58 15.99,3.46 23.28,2.9 6.48,-0.5 14.82,-1.24 19.97,-7.72 0.85,-1.07 2.48,-1.6 3.85,-2.15 25.27,-10.19 50.61,-10.03 75.8,0.05 4.34,1.74 8.56,4.12 12.66,6.46 5.61,3.21 8.27,8.5 8.12,15.03 -0.4,17.56 -6.06,33.6 -14.64,48.66 -3.56,6.25 -10.14,8.65 -16.61,10.17 -22.44,5.26 -44.69,4.42 -66.11,-4.53 -14.77,-6.17 -20.24,-19.44 -23.4,-33.86 -1.03,-4.68 -1.53,-9.57 -1.53,-14.36 0,-2.96 -1.21,-3.15 -3.42,-3.31 -8.26,-0.57 -8.68,-0.19 -9.1,7.92 -0.54,10.46 -3.26,20.35 -8.36,29.5 -4.46,8 -11.09,13.79 -19.68,16.87 -21.72,7.78 -43.83,8.99 -66.24,3.2 -9.03,-2.34 -15.59,-7.37 -19.59,-16.18 -6.1,-13.43 -10.87,-27.08 -11.67,-41.97 -0.56,-10.51 4.93,-18.23 15.04,-21.16 11.31,-3.28 22.14,-8.27 34.05,-9.37 3.64,-0.34 7.29,-0.6 10.93,-0.89 z m 143.95,80.34 c 4.53,0.49 10.19,-0.23 15.73,-1.21 6.29,-1.12 13.61,-1.5 17.15,-7.7 7.24,-12.66 12.06,-26.24 12.64,-41.06 0.19,-4.85 -1.93,-7.84 -6.72,-8.1 -5,-0.27 -9.65,-2.14 -14.49,-2.75 -25.58,-3.22 -50.76,-0.55 -75.63,5.87 -2.17,0.56 -3.28,1.49 -3.56,3.94 -1.06,9.3 0.51,18.23 3.53,26.93 3.7,10.67 10.97,17.45 22.09,20.29 9.26,2.37 18.55,3.86 29.26,3.79 z M 575.03,626.51 c -11.17,-0.36 -23.03,1.05 -34.82,3.43 -4.73,0.95 -6.76,3.21 -6.34,8.25 1,12.14 5.07,23.27 9.85,34.33 2.54,5.87 6.71,8.75 12.55,10.06 17.24,3.89 34.28,3.02 51.29,-1.63 10.05,-2.75 16.33,-9.13 19.74,-18.68 2.72,-7.59 3.91,-15.4 3.85,-23.5 -0.03,-3.71 -1.46,-5.2 -4.87,-5.98 -16.59,-3.78 -33.29,-6.56 -51.25,-6.28 z"
         id="path26" /><path
         class="st11"
         d="m 755.95,736.64 c -0.53,12.83 -9.13,21.18 -20.37,21.64 -13.89,0.57 -23.08,-9.68 -22.69,-22.12 0.36,-11.58 8.74,-21.57 22.14,-21.22 11.34,0.29 20.56,9.21 20.92,21.7 z"
         id="path28" /><path
         class="st12"
         d="m 545.88,736.66 c -1.62,-11.4 9.17,-21.72 20.44,-21.6 12.61,0.13 21.43,8.12 21.97,21.32 0.54,13.29 -11.41,22.05 -20.98,22.01 -11.89,-0.05 -23.09,-9.78 -21.43,-21.73 z"
         id="path30" /><path
         class="st13"
         d="m 612.76,766.86 c 7.05,0.43 13.96,-0.8 20.74,-2.34 11.93,-2.71 23.73,-2.53 35.57,0.18 8.49,1.95 17.07,2.56 25.74,1.82 3.71,-0.32 6.9,0.34 7.24,4.74 0.34,4.35 -2.71,5.52 -6.38,5.99 -9.53,1.21 -19,0.39 -28.22,-1.84 -12.64,-3.06 -25,-2.11 -37.47,0.71 -7.83,1.77 -15.82,1.95 -23.81,1.29 -3.75,-0.31 -7.29,-1.39 -7.04,-5.97 0.25,-4.66 3.78,-5.24 7.64,-4.89 1.99,0.17 3.99,0.21 5.99,0.31 z"
         id="path32" /><path
         class="st10"
         d="m 660.18,720.16 c -0.1,5.76 -4.15,9.66 -9.9,9.53 -5.33,-0.12 -9.33,-4.26 -9.32,-9.67 0.01,-5.43 4.45,-9.67 9.97,-9.52 5.37,0.14 9.35,4.3 9.25,9.66 z"
         id="path34" /><path
         class="st13"
         d="m 650.71,780.14 c 3.02,0.37 5.98,0.35 8.85,1.45 3.16,1.21 4.42,3.48 3.65,6.62 -0.74,3.04 -3.03,4.33 -6.05,3.7 -4.29,-0.89 -8.54,-0.82 -12.81,0 -3.33,0.65 -5.64,-0.7 -6.34,-3.92 -0.75,-3.45 0.86,-5.82 4.39,-6.54 2.75,-0.55 5.54,-0.88 8.31,-1.31 z"
         id="path36" /><path
         class="st14"
         d="m 723.57,686.67 c -10.71,0.07 -20.01,-1.42 -29.25,-3.79 -11.12,-2.84 -18.39,-9.62 -22.09,-20.29 -3.02,-8.71 -4.59,-17.63 -3.53,-26.93 0.28,-2.45 1.39,-3.38 3.56,-3.94 24.87,-6.42 50.05,-9.09 75.63,-5.87 4.84,0.61 9.48,2.48 14.49,2.75 4.78,0.26 6.9,3.25 6.72,8.1 -0.58,14.82 -5.4,28.4 -12.64,41.06 -3.54,6.19 -10.86,6.58 -17.15,7.7 -5.55,0.98 -11.21,1.7 -15.74,1.21 z m -1.6,-23.93 c 6.4,-0.03 11.56,-5.06 11.59,-11.28 0.03,-6.64 -5.11,-11.87 -11.59,-11.83 -6.52,0.05 -11.59,5.22 -11.6,11.85 -0.02,6.19 5.24,11.29 11.6,11.26 z"
         id="path38" /><path
         class="st14"
         d="m 575.03,626.51 c 17.96,-0.29 34.66,2.49 51.25,6.28 3.41,0.78 4.84,2.27 4.87,5.98 0.05,8.09 -1.14,15.91 -3.85,23.5 -3.42,9.55 -9.69,15.93 -19.74,18.68 -17.01,4.65 -34.05,5.51 -51.29,1.63 -5.84,-1.32 -10.01,-4.2 -12.55,-10.06 -4.78,-11.06 -8.85,-22.19 -9.85,-34.33 -0.42,-5.04 1.61,-7.29 6.34,-8.25 11.79,-2.37 23.65,-3.79 34.82,-3.43 z m 4.16,36.31 c 6.51,0.02 11.59,-4.79 11.72,-11.09 0.14,-6.41 -5.14,-11.89 -11.55,-11.96 -6.6,-0.08 -11.57,4.99 -11.52,11.73 0.06,6.62 4.76,11.3 11.35,11.32 z"
         id="path40" /><path
         class="st13"
         d="m 721.97,662.74 c -6.36,0.03 -11.62,-5.06 -11.61,-11.25 0.01,-6.63 5.08,-11.8 11.6,-11.85 6.49,-0.05 11.62,5.19 11.59,11.83 -0.02,6.21 -5.19,11.23 -11.58,11.27 z"
         id="path42" /><path
         class="st13"
         d="m 579.19,662.82 c -6.6,-0.02 -11.29,-4.7 -11.34,-11.33 -0.05,-6.74 4.92,-11.8 11.52,-11.73 6.4,0.08 11.69,5.55 11.55,11.96 -0.14,6.31 -5.22,11.11 -11.73,11.1 z"
         id="path44" /><g
         id="g886"
         style="fill:#fdfdf7;fill-opacity:1"
         transform="translate(-7.8099771,55.466553)"><path
           style="fill:#fdfdf7;fill-opacity:1;stroke:#000000;stroke-width:0;stroke-linecap:butt;stroke-linejoin:miter;stroke-miterlimit:4;stroke-dasharray:none;stroke-opacity:1"
           d="m 207.51765,924.59151 98.92711,-62.94096 186.75103,-83.64139 c 0,0 23.07349,25.23662 38.93651,37.49441 15.86303,12.25779 72.8257,41.09965 119.69372,37.49442 46.86802,-3.60523 104.55174,-15.14198 124.74104,-33.88918 20.1893,-18.74721 47.58907,-43.26279 47.58907,-43.26279 l 113.92535,53.35744 155.74602,74.98883 13.6111,22.44051 z"
           id="path1067"
           sodipodi:nodetypes="cccsssccccc" /></g><g
         id="g944"><path
           id="path976-3"
           style="fill:#fdfdf7;fill-opacity:1;stroke-width:0"
           transform="matrix(1,0,0,-1,-7.8099724,55.466553)"
           d="m 205.51765,-922.59151 a 542.98425,542.98425 0 0 1 451.94943,-242.06699 542.98425,542.98425 0 0 1 451.97152,242.0257" /><path
           class="st1"
           d="m 710.07,412.69 c 26.69,6.9 51.24,17.68 69.76,39.1 5.08,5.88 8.65,12.66 9.16,20.63 0.11,1.71 0.59,2.2 2.3,2.31 21.03,1.38 33.13,14.66 41.67,32.07 11.19,22.85 12.11,47.1 8.47,71.76 -1.55,10.52 -3.48,20.98 -5.28,31.45 -0.65,3.78 0.13,5.72 4.54,6.74 14.47,3.36 21.83,13.85 24.99,27.55 6.07,26.33 -8.43,59.1 -31.83,72.79 -3.34,1.95 -6.89,3.69 -10.62,4.11 -3.75,0.42 -4.42,2.41 -4.91,5.43 -2.79,17.28 -6.88,34.22 -13.26,50.56 -0.85,2.17 -1.46,4.51 -2.74,6.4 -3.93,5.8 -2.79,11.31 -0.18,17.25 7.16,16.29 18.42,28.02 35.05,35.03 55.29,23.32 110.4,47.05 164.69,72.64 30.23,14.24 60.59,28.28 88.76,46.48 4.62,2.99 9.1,6.19 12.59,10.52 3.32,4.11 3.23,8.36 -0.1,11.05 -3.52,2.84 -7.31,2.12 -10.86,-1.73 -7,-7.6 -16.11,-12.3 -24.93,-17.25 -35.83,-20.12 -73.22,-37.1 -110.61,-54.03 -41.34,-18.72 -83.02,-36.68 -124.83,-54.33 -4.74,-2 -9.55,-4 -13.72,-7.09 -2.19,-1.62 -3.42,-1.4 -5.39,0.55 -25.15,24.75 -54.16,43.65 -87.55,55.07 -79.14,27.06 -151.7,14.04 -217.59,-37.15 -7.1,-5.52 -13.79,-11.55 -19.84,-18.24 -1.14,-1.26 -1.91,-1.78 -3.68,-0.74 -18.69,11.02 -39.22,18.06 -58.99,26.7 -55.3,24.16 -110.57,48.39 -164.51,75.5 -14.12,7.09 -28.08,14.52 -41.27,23.29 -4.02,2.67 -7.9,5.48 -11.07,9.22 -2.69,3.16 -7.38,3.5 -10.24,0.83 -3.14,-2.94 -3.42,-6.42 -0.85,-9.83 5.55,-7.34 13.33,-12 21.04,-16.55 38.3,-22.59 78.76,-40.87 119.14,-59.3 42.19,-19.26 84.77,-37.65 127.46,-55.77 19.42,-8.24 30.59,-23.22 36.88,-42.63 0.62,-1.9 0.21,-3.45 -0.61,-5.21 -9.13,-19.6 -14.47,-40.34 -18.1,-61.56 -0.34,-2.01 -0.25,-3.93 -2.98,-4.42 -13.27,-2.39 -22.94,-10.4 -30.53,-20.89 -13.56,-18.73 -19.53,-39.29 -12.25,-62.1 3.55,-11.11 11.11,-18.95 22.71,-21.81 3.61,-0.89 4.47,-2.19 4.01,-5.61 -1.92,-14.17 -3.76,-28.36 -5.42,-42.57 -1.79,-15.37 -4.41,-30.7 -4.64,-46.17 -0.33,-23.1 9.17,-42.67 24.04,-59.71 23.6,-27.05 54.36,-41.52 88.74,-49.23 18.53,-4.15 37.29,-6.74 56.32,-7.07 1.11,-0.04 2.22,-0.08 3.33,-0.11 1.85,-0.58 3.74,-0.77 5.67,-0.52 1.9,2.8 4.37,3.12 7.41,1.99 1.83,-0.68 3.82,-1.21 5.76,-1.3 6.78,-0.33 13.67,-0.48 20.25,1.08 6.19,1.46 12.6,1.34 18.76,2.2 8.48,1.15 17.11,3.59 25.88,2.62 z m -121.92,85.54 c 0,0.16 0,0.31 0,0.47 -15.66,0 -31.32,-0.03 -46.98,0.01 -6.72,0.02 -9.95,3.7 -8.9,10.07 1.82,11.15 3.26,22.39 5.63,33.43 4.09,19 2.35,36.72 -7.59,53.9 -7.97,13.78 -14.95,28.22 -21.39,42.79 -3.57,8.06 -7.81,12.97 -17.16,11.13 -0.31,-0.06 -0.67,0.02 -0.99,0.08 -2.32,0.38 -3.45,-0.5 -3.37,-2.95 0.05,-1.49 -0.18,-2.99 -0.25,-4.49 -0.38,-8.9 -0.37,-8.9 -9.08,-11.26 -16.39,-4.44 -27.66,3.38 -29.12,20.29 -1.57,18.24 4.74,33.66 17.25,46.65 6.78,7.05 14.91,11.24 25.07,9.33 3.77,-0.71 4.46,1.12 4.7,4.25 1.37,18.17 5.46,35.79 11.37,52.98 8.8,25.61 22.42,47.83 45.58,63.1 12.87,8.49 27.06,14.2 41.35,19.72 4.92,1.9 10.06,3.22 14.56,6.35 24.36,16.92 50.17,19.09 76.04,4.64 11.08,-6.19 22.37,-11.47 34.07,-16.13 1.54,-0.61 3.05,-1.32 4.59,-1.93 36.9,-14.5 60.32,-41.25 71.86,-78.88 5.13,-16.73 8.94,-33.72 10.24,-51.2 0.22,-2.97 1.3,-3.56 3.99,-3.11 10.95,1.85 19.35,-2.79 26.59,-10.5 3.56,-3.79 6.66,-7.89 9.03,-12.49 6.43,-12.47 9.77,-25.43 5.76,-39.45 -3.18,-11.12 -11.59,-16.64 -23.05,-14.92 -2.78,0.42 -5.46,1.46 -8.24,1.9 -4.15,0.67 -5.64,2.93 -5.6,7.07 0.03,3.41 1.37,7.96 -1.04,10.02 -2.56,2.19 -7.06,0.14 -10.66,0.61 -3.12,0.4 -4.67,-0.8 -6.06,-3.6 -9.75,-19.64 -19.74,-39.16 -29.55,-58.77 -4.96,-9.92 -7.03,-20.57 -5.54,-31.51 2.09,-15.31 4.88,-30.53 7.44,-45.77 1.35,-8.04 -1.53,-11.53 -9.79,-11.56 -30.48,-0.1 -60.97,-0.16 -91.45,-0.32 -3.63,-0.02 -6.8,0.75 -9.79,2.91 -4.79,3.45 -9.01,3.49 -13.8,0.05 -3,-2.15 -6.11,-3.01 -9.77,-2.98 -15.31,0.14 -30.63,0.07 -45.95,0.07 z M 512,806.96 c -4.33,9.41 -9.01,17.43 -15.64,24.09 -1.95,1.96 -1.57,3.03 0.18,4.78 39.37,39.42 86.74,61.51 142.43,64.49 43.92,2.35 84.6,-9.23 122.35,-31.48 16.71,-9.85 31.82,-21.76 45.62,-35.66 -7.64,-7.26 -12.96,-15.92 -17.55,-25.52 -4.91,6.56 -9.72,12.49 -15.23,17.82 -14.87,14.39 -32.88,23.51 -51.78,31.25 -7.21,2.95 -15.04,4.62 -21.48,9.21 -29.21,20.82 -66.6,21.94 -96.53,2.52 -4.51,-2.93 -9.21,-5.18 -14.23,-6.99 C 559.49,850.42 531.05,836.12 512,806.96 Z"
           id="path6" /></g></g></g></g>
<style
   type="text/css"
   id="style2-7">
	.st0{fill:#FEFEF8;}
	.st1{fill:#2B2471;}
	.st2{fill:#F6AAB1;}
	.st3{fill:#F5ABB2;}
	.st4{fill:#F4ABB2;}
	.st5{fill:#322D60;}
	.st6{fill:#FDFDF7;}
	.st7{fill:#FAFAF7;}
	.st8{fill:#FCF8F2;}
	.st9{fill:#FBF2EB;}
	.st10{fill:#2D2670;}
	.st11{fill:#F6A9B0;}
	.st12{fill:#F6A9AF;}
	.st13{fill:#2E2870;}
	.st14{fill:#FBFBF7;}
</style></svg>
