<?xml version="1.0" encoding="utf-8"?>
<!-- Generator: Adobe Illustrator 24.3.0, SVG Export Plug-In . SVG Version: 6.00 Build 0)  -->
<svg version="1.1"
	 id="svg8" xmlns:cc="http://creativecommons.org/ns#" xmlns:dc="http://purl.org/dc/elements/1.1/" xmlns:inkscape="http://www.inkscape.org/namespaces/inkscape" xmlns:rdf="http://www.w3.org/1999/02/22-rdf-syntax-ns#" xmlns:sodipodi="http://sodipodi.sourceforge.net/DTD/sodipodi-0.dtd" xmlns:svg="http://www.w3.org/2000/svg"
	 xmlns="http://www.w3.org/2000/svg" xmlns:xlink="http://www.w3.org/1999/xlink" x="0px" y="0px" viewBox="0 0 242 75.1"
	 style="enable-background:new 0 0 242 75.1;" xml:space="preserve">
<style type="text/css">
	.st0{enable-background:new    ;}
	.st1{fill:#333333;}
	.st2{fill:#FFA31D;}
</style>
<sodipodi:namedview  bordercolor="#666666" borderopacity="1.0" fit-margin-bottom="0" fit-margin-left="0" fit-margin-right="0" fit-margin-top="0" id="base" inkscape:current-layer="layer1" inkscape:cx="69.825305" inkscape:cy="112.75922" inkscape:document-rotation="0" inkscape:document-units="px" inkscape:pageopacity="0.0" inkscape:pageshadow="2" inkscape:window-height="1027" inkscape:window-maximized="1" inkscape:window-width="1920" inkscape:window-x="-8" inkscape:window-y="-8" inkscape:zoom="1.4" pagecolor="#ffffff" showgrid="false" units="px">
	</sodipodi:namedview>
<g id="layer1" transform="translate(-2.1542949,-4.8012104)" inkscape:groupmode="layer" inkscape:label="Layer 1">
	<g class="st0">
		<path class="st1" d="M41.4,79.9c-0.9,0.1-1.7-0.1-2.5-0.6c-0.7-0.5-1.3-1-1.5-1.7c-0.3-0.4-0.7-1.1-1.4-2.3c-0.6-1.2-1-2.2-1.2-3
			c-0.2-2.3-0.3-4.4-0.4-6.6c0-2.1,0.1-5.1,0.3-8.9c0.2-3.1,0.6-5.9,1.3-8.3s1.3-4.5,1.9-6.2c0.6-1.7,1.1-3,1.5-3.9
			c0.4-0.9,0.4-1.3,0.2-1.3c-0.3,0-0.6,0.3-0.9,0.8c-0.3,0.5-0.7,1.2-1.1,2.1c-0.4,0.8-0.8,1.8-1.3,2.8c-0.5,1-0.9,1.9-1.4,2.9
			c-1,2.2-2.1,4.5-3.4,6.9c-1.3,2.4-2.6,4.8-4,7c-1.3,2.3-2.5,4.2-3.5,5.9c-0.6,0.7-1.4,1.7-2.2,3s-1.8,2.7-2.8,4.1
			c-1,1.4-2,2.6-3.1,3.5c-1.6,1.5-3.1,2.4-4.8,2.7c-1.6,0.3-3.1,0.1-4.6-0.6C6,78,5.3,77.6,4.5,77c-0.8-0.7-1.4-1.5-1.9-2.5
			c-0.5-1-0.6-1.9-0.4-2.8c-0.1-1-0.1-2.5,0.1-4.6c0.1-2.1,0.3-4.4,0.6-6.9c0.3-2.5,0.6-4.9,0.9-7.3c0.3-2.3,0.6-4.3,0.9-5.8
			c0.6-4.5,1.5-9.1,2.6-13.9c1.1-4.7,2.1-9.5,3-14.3c0.6-1.4,1.1-3,1.5-4.8c0.5-1.8,0.9-3.5,1.4-5c0.1-1.6,0.6-2.5,1.7-2.9
			c1.1-0.4,2.2-0.4,3.4-0.2c1.2,0.3,2.1,0.8,2.6,1.5c0.7,0.7,1.4,1.8,2,3.3c0.6,1.5,0.5,3.4-0.5,5.6c-1.4,3.5-2.8,7.7-4.1,12.7
			c-1.3,5-2.5,11-3.5,18.1c-0.3,1.7-0.6,3.6-0.9,5.7c-0.3,2.1-0.6,4.1-0.8,6c-0.2,1.9-0.4,3.5-0.5,4.7c-0.1,1.2-0.1,1.9,0.1,2
			c0.6,0.1,1.2-0.2,1.9-1c0.7-0.8,1.4-2,2.2-3.7c2.9-4.8,5.6-9.6,8.2-14.3c2.6-4.7,5.2-9.7,7.8-14.8c1.2-2,2.4-4.3,3.7-6.7
			c1.2-2.4,2.4-4.7,3.5-6.7c1.2-2.1,2.4-4.2,3.5-6.1c1.1-2,2.1-3.7,3-5c0.8-1.4,1.5-2.1,1.9-2.3c1.9,0,3.3,0.5,4.3,1.5
			c1,1,1.7,2.2,2.3,3.6c0.1,0.4,0.2,1,0.3,1.8c0,0.8-0.1,1.6-0.4,2.2c-0.1,0.5-0.4,1.5-0.9,3.1c-0.5,1.6-1,3.3-1.4,5.2
			c-0.7,1.9-1.3,3.8-1.9,5.7c-0.5,1.9-0.9,3.4-1.1,4.6c-0.6,3-1.3,6.4-2.1,10s-1.6,7.2-2.2,10.7c-0.6,3.5-0.9,6.7-1,9.5
			c-0.1,2-0.1,3.3,0.1,3.9s0.3,1.2,0.6,1.9c0.1,0.6,0.5,0.7,1,0.4c0.5-0.3,1-0.8,1.5-1.5c1-1.5,1.7-2.8,2.3-3.8s1.1-2.2,1.6-3.4
			c0.6-1.2,1.3-2.8,2.3-4.7c1.8-3.2,3.6-6.8,5.5-10.7c1.9-3.9,3.7-7.7,5.4-11.5c1.7-3.8,3.2-7.2,4.5-10.2c1.3-3.8,2.5-6.9,3.4-9.3
			c0.9-2.4,1.8-4.2,2.5-5.5c0.8-1.3,1.5-2.1,2.2-2.5c0.4-0.3,1.1-0.4,2.3-0.4c1.2,0,2.1,0.3,2.7,0.8c0.3,0.3,0.8,0.7,1.5,1.4
			c0.7,0.6,1,1.4,1,2.2c-0.4,1.1-1,3-2,5.5s-2,5.3-3.3,8.4c-1.2,3.1-2.4,6-3.6,8.8c-1.2,2.8-2.1,5-2.9,6.6c-0.8,1.5-1.5,2.8-2.2,3.8
			c-0.7,1.1-1.1,1.9-1.1,2.4c0,0.3-0.4,1.1-1.1,2.6c-0.7,1.4-1.6,3.2-2.7,5.2c-1.1,2-2.3,4.2-3.5,6.4c-1.3,2.2-2.5,4.2-3.6,6
			c-1.1,1.8-2.1,3.2-2.9,4.2c-1.8,2.2-3.7,4-5.7,5.6c-2,1.5-3.8,2.7-5.3,3.4C43,79.5,41.9,79.9,41.4,79.9z"/>
		<path class="st1" d="M77.6,71.1c-0.3-0.6-0.9-1.1-1.9-1.7c-1-0.6-1.4-1-1.4-1.3c0-0.3-0.2-0.7-0.5-1.3c-0.3-0.6-0.6-1-0.9-1.3
			c-0.4-0.4-0.2-1.5,0.3-3.1c0.6-1.7,1.4-3.7,2.5-6.1c1.1-2.4,2.4-4.8,3.7-7.3c0.6-0.6,1.1-1.3,1.7-2.2c0.6-0.9,1-1.5,1.3-1.8
			c0-0.3,0.1-0.5,0.3-0.8c0.2-0.2,0.5-0.4,0.7-0.4l0.8-1.7c0.1-0.3,0.6-0.8,1.3-1.7c0.7-0.8,1.6-1.8,2.7-2.8c1.1-1,2.1-2,3.2-2.9
			c1.1-0.9,2-1.6,2.7-2c1.5-1,3-1.4,4.6-1.4c1.6,0.1,2.9,0.6,4.1,1.5c0.2,0.2,0.7,0.6,1.4,1.3c0.7,0.6,1.6,1.3,2.5,2.1
			c1,0.8,1.8,1.5,2.5,2.1l3.9,3.5l-1.8,5.3c-0.9,2.8-1.1,5.3-0.7,7.4c0.5,2.1,1.1,4,2,5.5c0.4,0.8,0.8,1.4,1.4,1.8
			c0.6,0.4,1.4,0.7,2.4,0.8c0.6,0.1,1.1,0.3,1.6,0.6c0.5,0.4,0.7,0.9,0.7,1.7c0,1.7-0.3,2.9-0.9,3.7c-0.6,0.7-1.3,1.2-2,1.3
			c-2.3,0.3-4.6,0-6.7-0.7c-2.1-0.8-4-2.8-5.7-6c-0.3-0.4-0.7-1.2-1.1-2.4c-0.5-1.2-0.7-1.9-0.8-2.3c-0.3,0.4-0.7,0.8-1.1,1.3
			c-0.5,0.5-0.9,1-1.3,1.4c-5,5.1-9.3,8.4-12.9,9.9C82.9,72.7,80,72.6,77.6,71.1z M85.7,61.5c1.1-0.6,2.5-1.6,4.2-3
			c2.4-2,4.4-3.7,5.9-5.1c1.6-1.3,3.1-3.1,4.6-5.2l2.3-3.8c-0.7-1.6-1.3-2.7-1.9-3.2c-0.6-0.5-1.1-0.7-1.7-0.7c-0.9,0-2,0.6-3.3,1.7
			c-1.3,1.2-2.7,2.9-4.3,5.1c-1.6,2.2-3.4,5-5.3,8.3c-0.9,1.6-1.9,3.8-2.9,6.7C83.9,62.4,84.6,62.1,85.7,61.5z"/>
		<path class="st1" d="M127.9,74c-2.4-1-4.1-2-5.2-3.1c-1.1-1.1-1.5-2.1-1.3-2.9c0.1-0.4,0.4-0.8,0.7-1.2c0.4-0.4,1.1-0.5,2.4-0.5
			c1.2,0,3.2,0.4,5.8,1c0.8,0,1.6,0,2.3-0.1c0.8-0.1,1.5-0.2,2.2-0.3c0.7-0.1,1.2-0.3,1.6-0.5c0.4-0.1,0.5-0.3,0.3-0.6
			c-0.1-0.2-0.4-0.5-0.7-0.8c-0.3-0.4-0.6-0.6-1-0.7c-0.4-0.1-0.7-0.2-1-0.2c-0.1-0.4-0.4-0.7-0.9-1.1c-0.5-0.4-1-0.7-1.6-1.2
			c-1.6-1.3-3-2.4-4.2-3.4c-1.3-1-1.8-1.7-1.5-2.2c0-0.3,0-0.5,0-0.5c-0.5,0-1-0.7-1.4-2.1s-0.6-2.6-0.6-3.8c0-1.4,0.3-2.8,0.9-4.2
			c0.6-1.4,1.4-2.8,2.3-4c1-1.3,1.9-2.4,2.9-3.4c1.3-1.3,2.8-2.5,4.3-3.8c1.5-1.2,3.2-2.3,5-3.3c1.8-1,3.8-1.8,6-2.3
			c1-0.2,2.1-0.3,3.4-0.3c1.3,0,2.2,0.2,2.8,0.5c0.6-0.4,1.3-0.3,2.1,0.3c0.8,0.5,1.7,1.3,2.5,2.2c0.8,0.9,1.5,1.8,1.9,2.8
			c0,0.8,0,1.9-0.1,3.1c0,1.2-0.1,2.3-0.3,3.2c-0.1,0.9-0.5,1.4-1,1.4c-0.4,0.1-0.5,0.3-0.5,0.6c0,0.7-0.5,1.5-1.6,2.4
			c-1.3,0.9-2.6,1.7-3.8,2.2c-1.2,0.6-2.1,0.6-2.8,0.1c-0.4-0.3-0.8-0.6-1.2-0.8c-0.4-0.3-0.7-0.6-1-1.1c-0.4-0.6-0.5-1.1-0.5-1.4
			c0-0.3,0.2-0.7,0.6-1.2c1-0.9,1.7-1.8,2.3-2.5c0.5-0.8,0.9-1.5,1.1-2.1c0.2-0.6,0.3-1.1,0.3-1.4c0-0.4-0.1-0.7-0.3-0.8
			c-0.2-0.1-0.5-0.2-1.1-0.2c-0.4,0-1.1,0.3-2.3,0.8c-1.2,0.6-2.4,1.3-3.7,2.1c-1.3,0.8-2.3,1.5-3,2.2c-0.3,0.5-0.5,0.8-0.6,1
			c-0.1,0.1-0.3,0.2-0.6,0.2c0-0.3-0.2-0.2-0.5,0.1c-0.4,0.4-0.8,0.8-1.3,1.5c-0.5,0.6-1,1.3-1.5,2c-0.5,0.7-0.9,1.3-1.2,1.7
			c-0.1,0.6-0.2,1.2-0.5,1.7c-0.2,0.5-0.3,1.1-0.3,1.6c0.1,0.7,0.4,1.4,1.1,2c0.6,0.6,1.6,1.4,2.8,2.4c2.5,1.8,4.3,3.3,5.6,4.3
			c1.2,1.1,2.1,1.9,2.6,2.5c0.5,0.6,0.8,1.3,1,1.9c1.2,2.2,1.3,4.1,0.4,5.7c-0.9,1.6-2.3,2.8-4.2,3.7c-0.7,0.4-1.9,0.7-3.7,1
			c-1.8,0.3-3.6,0.5-5.6,0.4C130.8,74.8,129.2,74.5,127.9,74z"/>
		<path class="st1" d="M159.6,71.5c-0.6-0.6-1-1.4-1.2-2.5c-0.2-1.1-0.3-2.2-0.3-3.3c0.1-1.1,0.2-1.9,0.5-2.5c0-0.6,0.1-1,0.3-1.3
			s0.2-0.6,0.2-0.9c-0.1-0.3,0-0.8,0.2-1.5c0.2-0.7,0.4-1.4,0.6-2c0.5-1.1,1.1-2.6,1.7-4.4c0.6-1.8,1.3-3.6,1.9-5.5
			c0.6-1.9,1.2-3.5,1.6-4.9c0.4-1.4,0.7-2.2,0.7-2.5c0-0.8,0.6-1.3,1.7-1.4c0.8-0.3,1.9,0.1,3.1,1.1c1.2,1,2.2,2,2.9,3.2
			c0.6,0.6,0.8,1.3,0.6,2.2c-0.1,0.9-0.6,2.2-1.4,3.9c-0.3,0.6-0.6,1.5-1,2.8c-0.4,1.3-0.7,2.4-0.8,3.2c-0.3,0.6-0.6,1.4-1,2.4
			c-0.4,1-0.7,2-1,2.9c-0.1,0.4-0.3,1-0.4,2s-0.3,1.9-0.5,2.9c-0.2,1-0.5,1.8-0.8,2.3c-0.6,2.9-1.7,4.6-3.3,5.1
			C162.2,73.3,160.8,72.9,159.6,71.5z M171.1,29.1c-0.8-0.6-1.4-1.3-1.7-2.1c-0.4-0.8-0.6-1.5-0.6-2.2c0-0.6,0-1,0.2-1.2
			c0.7-0.8,1.3-1.8,1.9-3.1c0.5-1.3,1.1-2.4,1.7-3.5c0.1-0.2,0.3-0.5,0.6-0.9c0.2-0.4,0.5-0.6,0.8-0.7c0.8-0.6,2-0.5,3.5,0.1
			c1.5,0.6,2.6,1.5,3.3,2.6c0.6,1.3,0.8,2.7,0.6,4.1c-0.2,1.4-1,2.9-2.3,4.4c-1.1,1.4-2.4,2.3-4,2.7
			C173.4,29.9,172.1,29.8,171.1,29.1z"/>
		<path class="st1" d="M216.4,70.8c-1.6-0.1-2.8-0.5-3.9-1c-1-0.5-1.9-1.6-2.5-3.2c-0.3-1.1-0.4-2.3-0.4-3.5c0-1.2,0.1-2.4,0.3-3.6
			c0.1-1.2,0.2-2.2,0.2-3c0-0.1,0-0.4,0-0.8s0-0.8,0-1.2c-0.1-1.1-0.4-1.7-0.8-2c-0.4-0.2-1-0.2-2,0.2c-1.5,0.7-3.1,1.6-4.8,2.8
			c-1.7,1.2-3.5,2.5-5.4,4c-1.9,1.5-3.8,3.1-5.8,4.8c-1.6,1.7-2.7,3.1-3.4,4.1c-0.7,1.1-1.5,1.6-2.3,1.6c-0.6,0.3-1.2,0.2-1.8-0.2
			c-0.6-0.4-1.3-0.9-2-1.5c-0.5-0.6-1.1-1.3-1.7-2.2c-0.7-0.9-1.1-1.5-1.2-1.7c0-1.1,0.1-2.2,0.3-3.1c0.2-0.9,0.5-1.9,0.8-2.9
			c0.4-1,0.9-2.1,1.4-3.4c0.3-0.5,0.5-1,0.8-1.5c0.2-0.5,0.5-1.1,0.9-1.7c0.3-1,0.7-2.1,1.2-3.4c0.5-1.3,1-2.5,1.5-3.6
			c0.8-1.8,1.4-3.4,1.8-4.8c0.4-1.3,0.8-2.8,1.1-4.3c-0.1-0.1,0-0.4,0.1-0.6c0.1-0.3,0.4-0.5,0.6-0.5h0.1h0.1
			c0.5-0.4,1.4-0.4,2.8-0.2c1.4,0.2,2.4,0.7,3.1,1.2c1.5,1.3,2.2,2.9,2.1,5c-0.1,2-1.1,4.7-3.2,8c-0.5,1.1-1,2.2-1.5,3.1
			c-0.5,1-0.8,1.6-0.8,2c1.1-0.8,2.1-1.6,2.9-2.2c0.8-0.6,1.4-1.1,2-1.4c0.4-0.4,1.1-1,2.3-2c1.2-1,2.5-2,3.9-3s2.5-1.9,3.4-2.4
			c0.8-0.6,1.8-1.1,3-1.7c1.2-0.6,1.9-0.9,2.2-0.9c0.7,0,1.6,0.2,2.6,0.7c1,0.5,2,1.1,2.9,1.7c0.9,0.7,1.4,1.3,1.5,1.9
			c0,0.3,0,0.7-0.1,1.1c-0.1,0.5-0.1,0.9-0.1,1.2c-0.1,1.1-0.1,2.5-0.1,4.1c0,1.6,0.1,3.2,0.1,4.8c0,1.6-0.1,3-0.4,4.3
			c0.1,0.2,0.2,0.4,0.3,0.6c-0.1,0.1-0.1,0.3,0,0.6c0.1,0.5,0.3,1,0.5,1.5c0.2,0.5,0.4,1,0.7,1.6c0.3,0.6,0.6,1.4,1,2.3
			c-0.1,0.9-0.6,1.8-1.5,2.7C218.2,70,217.3,70.6,216.4,70.8z"/>
	</g>
	<g class="st0">
		<g>
			<path class="st2" d="M238.1,73.6c-1.9,0.6-3.5,0.9-4.7,0.9c-1.3,0-2.7-0.6-4.2-1.7c-1.8-1.8-2.4-3.6-1.8-5.5
				c0.6-1.8,2.2-3.7,4.8-5.5c1.8-1.1,3.1-1.6,4-1.7c0.9,0,2.1,0.3,3.9,1c3.1,1.9,4.4,4,4.1,6.3C243.7,69.8,241.8,71.8,238.1,73.6z"
				/>
		</g>
	</g>
</g>
</svg>
