<?xml version="1.0" encoding="UTF-8" standalone="no"?>
<svg
   xmlns:dc="http://purl.org/dc/elements/1.1/"
   xmlns:cc="http://creativecommons.org/ns#"
   xmlns:rdf="http://www.w3.org/1999/02/22-rdf-syntax-ns#"
   xmlns:svg="http://www.w3.org/2000/svg"
   xmlns="http://www.w3.org/2000/svg"
   xmlns:sodipodi="http://sodipodi.sourceforge.net/DTD/sodipodi-0.dtd"
   xmlns:inkscape="http://www.inkscape.org/namespaces/inkscape"
   height="60"
   width="61.538464"
   version="1.1"
   id="svg26"
   sodipodi:docname="aftereffect.svg"
   inkscape:version="1.0.1 (3bc2e813f5, 2020-09-07)">
  <metadata
     id="metadata32">
    <rdf:RDF>
      <cc:Work
         rdf:about="">
        <dc:format>image/svg+xml</dc:format>
        <dc:type
           rdf:resource="http://purl.org/dc/dcmitype/StillImage" />
        <dc:title />
      </cc:Work>
    </rdf:RDF>
  </metadata>
  <defs
     id="defs30">
    <clipPath
       clipPathUnits="userSpaceOnUse"
       id="clipPath995">
      <path
         d="M 0,1500 H 3000 V 0 H 0 Z"
         id="path993" />
    </clipPath>
    <clipPath
       clipPathUnits="userSpaceOnUse"
       id="clipPath1009">
      <path
         d="M 0,1500 H 3000 V 0 H 0 Z"
         id="path1007" />
    </clipPath>
    <clipPath
       clipPathUnits="userSpaceOnUse"
       id="clipPath1029">
      <path
         d="M 0,1500 H 3000 V 0 H 0 Z"
         id="path1027" />
    </clipPath>
    <clipPath
       id="clipPath18"
       clipPathUnits="userSpaceOnUse">
      <path
         id="path16"
         d="M 0,1500 H 3000 V 0 H 0 Z" />
    </clipPath>
    <clipPath
       id="clipPath32"
       clipPathUnits="userSpaceOnUse">
      <path
         id="path30"
         d="M 0,1500 H 3000 V 0 H 0 Z" />
    </clipPath>
    <clipPath
       id="clipPath52"
       clipPathUnits="userSpaceOnUse">
      <path
         id="path50"
         d="M 0,1500 H 3000 V 0 H 0 Z" />
    </clipPath>
  </defs>
  <sodipodi:namedview
     pagecolor="#ffffff"
     bordercolor="#666666"
     borderopacity="1"
     objecttolerance="10"
     gridtolerance="10"
     guidetolerance="10"
     inkscape:pageopacity="0"
     inkscape:pageshadow="2"
     inkscape:window-width="1920"
     inkscape:window-height="1027"
     id="namedview28"
     showgrid="false"
     inkscape:zoom="3.5612469"
     inkscape:cx="52.326108"
     inkscape:cy="36.680177"
     inkscape:window-x="-8"
     inkscape:window-y="-8"
     inkscape:window-maximized="1"
     inkscape:current-layer="g1248"
     inkscape:document-rotation="0" />
  <g
     stroke-width="0.166667"
     id="g916"
     transform="translate(5507.438,2084.6622)" />
  <g
     id="g987"
     inkscape:label="adobe-experience-manager-seeklogo.com"
     transform="matrix(0.04056964,0,0,-0.04056964,3511.9436,1496.1498)">
    <g
       id="g1023">
      <g
         id="g1155"
         transform="matrix(1.9257011,0,0,-1.9257011,-13328.062,10549.122)">
        <g
           id="g1232"
           transform="matrix(12.8,0,0,12.8,-25216.659,2558.4833)">
          <g
             id="g1248"
             transform="matrix(0.15625,0,0,0.15625,-964.75167,-1121.9065)">
            <path
               d="m -92.98121,-764.20549 c -1.641016,-5.08718 -3.117939,-10.01026 -4.75897,-15.09745 -1.641031,-5.08717 -3.11795,-9.84615 -4.43077,-14.60512 -1.31281,-4.59488 -2.46154,-8.86154 -3.61026,-12.8 h -0.3282 c -1.47692,7.05641 -3.28205,14.11282 -5.57949,21.16923 -2.46154,7.87692 -4.92308,16.08205 -7.54871,24.28719 -2.13334,8.36923 -4.75899,16.08204 -7.22052,22.97435 h 41.682058 c -0.984615,-3.44615 -2.297446,-7.54872 -3.774369,-11.81538 -1.476923,-4.43077 -2.953846,-9.18974 -4.430769,-14.11282 z m 140.800012,-4.75898 c -9.025642,-0.49231 -17.558976,4.26667 -21.825642,12.4718 -1.969231,3.77435 -3.117949,7.71281 -3.610257,11.81538 h 34.609233 c 4.266667,0 7.384616,0 9.353847,-0.16411 1.31282,-0.16409 2.62564,-0.4923 3.774358,-1.31281 v -1.64103 c 0,-2.13333 -0.344615,-4.10256 -1.001026,-6.07179 -2.921024,-9.18975 -11.618462,-15.42564 -21.300513,-15.09744 z M 90.977778,-935.36445 H -163.38121 c -38.5641,0 -69.74359,31.17949 -69.74359,69.74357 v 244.51283 c 0,38.5641 31.17949,69.7436 69.74359,69.7436 H 90.977778 c 38.564102,0 69.743592,-31.1795 69.743592,-69.7436 v -244.51283 c 0,-38.56408 -31.17949,-69.74357 -69.743592,-69.74357 z m -115.528211,270.94973 h -34.297438 c -1.148723,0.16409 -2.297431,-0.67283 -2.625646,-1.80514 l -13.4564,-39.38461 h -61.046153 l -12.4718,38.72821 c -0.3282,1.47693 -1.64103,2.46154 -3.11796,2.29743 h -30.85128 c -1.80512,0 -2.29743,-0.98461 -1.80512,-2.95384 l 52.84102,-151.48308 c 0.49231,-1.64103 0.98461,-3.11796 1.64103,-5.08719 0.65641,-3.44615 0.98461,-7.0564 0.98461,-10.66666 -0.1641,-0.82051 0.49231,-1.64103 1.31282,-1.80512 h 42.502571 c 1.148723,0 1.96923,0.4923 2.133338,1.31281 l 59.897435,168.20513 c 0.492307,1.80514 0.01538,2.64206 -1.641027,2.64206 z M 104.2865,-729.90806 c -0.34462,3.10154 -0.50872,5.41539 -0.67282,6.89231 -0.16411,1.14872 -1.13231,2.13334 -2.29744,2.13334 -0.98462,0 -2.789744,0.16409 -5.415385,0.34461 -2.609231,0.3282 -5.74359,0.4759 -9.501539,0.4759 -3.774359,0 -7.729231,-0.65642 -11.979487,-0.65642 H 22.399314 c 0.64,5.08719 2.297435,10.17437 5.08718,14.60514 2.970255,4.44717 7.07282,7.87692 11.963077,9.86255 6.564102,2.78976 13.801027,4.26668 21.021539,4.10257 5.74359,-0.1805 11.47077,-0.65641 17.050258,-1.80512 5.103589,-0.64 10.010256,-1.95283 14.621539,-3.77437 0.820512,-0.64 1.31282,-0.3282 1.31282,1.31283 v 25.12409 c 0,0.64 -0.164103,1.31284 -0.344615,1.95284 -0.344616,0.4923 -0.656411,0.83692 -1.132308,1.1487 -5.251282,2.29745 -10.666667,3.93846 -16.410258,4.92308 -7.729231,1.47692 -15.42564,2.13334 -23.302564,1.96923 -12.488206,0 -22.97436,-1.96923 -31.507695,-5.74358 -8.041024,-3.46257 -15.1138463,-8.87796 -20.69333262,-15.58974 -5.23487248,-6.4 -9.02564188,-13.62053 -11.32307738,-21.49745 -2.297437,-7.72923 -3.429745,-15.77025 -3.429745,-23.97538 0,-8.84513 1.312822,-17.55897 4.102565,-26.09231 2.6256417,-8.20513 6.7282049,-15.75385 12.3076928,-22.48205 5.4153848,-6.56411 12.1271802,-11.81539 19.8400012,-15.58974 7.729231,-3.77437 16.902565,-5.08718 27.40513,-5.08718 8.713846,-0.16411 17.394871,1.47692 25.435898,5.08718 6.728204,2.95385 12.635897,7.38462 17.230769,13.1282 4.266667,5.57949 7.712821,11.81539 9.862562,18.70769 2.11693,6.56411 3.10154,13.29231 3.10154,20.02051 0,3.93846 -0.1641,7.38462 -0.31179,10.50257 z"
               id="path1402"
               style="fill:#222222;fill-opacity:1;stroke-width:16.4103" />
          </g>
        </g>
      </g>
    </g>
  </g>
</svg>
