<?xml version="1.0" encoding="UTF-8" standalone="no"?>
<svg
   xmlns:dc="http://purl.org/dc/elements/1.1/"
   xmlns:cc="http://creativecommons.org/ns#"
   xmlns:rdf="http://www.w3.org/1999/02/22-rdf-syntax-ns#"
   xmlns:svg="http://www.w3.org/2000/svg"
   xmlns="http://www.w3.org/2000/svg"
   xmlns:sodipodi="http://sodipodi.sourceforge.net/DTD/sodipodi-0.dtd"
   xmlns:inkscape="http://www.inkscape.org/namespaces/inkscape"
   height="59.99987"
   width="73.745628"
   version="1.1"
   id="svg26"
   sodipodi:docname="blender.svg"
   inkscape:version="1.0.1 (3bc2e813f5, 2020-09-07)">
  <metadata
     id="metadata32">
    <rdf:RDF>
      <cc:Work
         rdf:about="">
        <dc:format>image/svg+xml</dc:format>
        <dc:type
           rdf:resource="http://purl.org/dc/dcmitype/StillImage" />
        <dc:title />
      </cc:Work>
    </rdf:RDF>
  </metadata>
  <defs
     id="defs30">
    <clipPath
       clipPathUnits="userSpaceOnUse"
       id="clipPath995">
      <path
         d="M 0,1500 H 3000 V 0 H 0 Z"
         id="path993" />
    </clipPath>
    <clipPath
       clipPathUnits="userSpaceOnUse"
       id="clipPath1009">
      <path
         d="M 0,1500 H 3000 V 0 H 0 Z"
         id="path1007" />
    </clipPath>
    <clipPath
       clipPathUnits="userSpaceOnUse"
       id="clipPath1029">
      <path
         d="M 0,1500 H 3000 V 0 H 0 Z"
         id="path1027" />
    </clipPath>
    <clipPath
       id="clipPath18"
       clipPathUnits="userSpaceOnUse">
      <path
         id="path16"
         d="M 0,1500 H 3000 V 0 H 0 Z" />
    </clipPath>
    <clipPath
       id="clipPath32"
       clipPathUnits="userSpaceOnUse">
      <path
         id="path30"
         d="M 0,1500 H 3000 V 0 H 0 Z" />
    </clipPath>
    <clipPath
       id="clipPath52"
       clipPathUnits="userSpaceOnUse">
      <path
         id="path50"
         d="M 0,1500 H 3000 V 0 H 0 Z" />
    </clipPath>
  </defs>
  <sodipodi:namedview
     pagecolor="#ffffff"
     bordercolor="#666666"
     borderopacity="1"
     objecttolerance="10"
     gridtolerance="10"
     guidetolerance="10"
     inkscape:pageopacity="0"
     inkscape:pageshadow="2"
     inkscape:window-width="1920"
     inkscape:window-height="1027"
     id="namedview28"
     showgrid="false"
     inkscape:zoom="7.122494"
     inkscape:cx="16.391985"
     inkscape:cy="39.413578"
     inkscape:window-x="-8"
     inkscape:window-y="-8"
     inkscape:window-maximized="1"
     inkscape:current-layer="Layer_2_1_"
     inkscape:document-rotation="0" />
  <g
     stroke-width="0.166667"
     id="g916"
     transform="translate(7801.7654,3791.9635)" />
  <g
     id="g987"
     inkscape:label="adobe-experience-manager-seeklogo.com"
     transform="matrix(0.04056964,0,0,-0.04056964,5806.271,3203.4511)">
    <g
       id="g1023">
      <g
         id="g1155"
         transform="matrix(1.9257011,0,0,-1.9257011,-13328.062,10549.122)">
        <g
           id="g1232"
           transform="matrix(12.8,0,0,12.8,-25216.659,2558.4833)">
          <g
             id="g1248"
             transform="matrix(0.15625,0,0,0.15625,-964.75167,-1121.9065)">
            <g
               style="clip-rule:evenodd;fill-rule:evenodd;stroke-linejoin:round;stroke-miterlimit:2"
               id="g1436"
               transform="matrix(1.0666667,0,0,1.0666667,-850.10638,-1612.754)">
              <g
                 fill-rule="nonzero"
                 transform="translate(159.99996,83)"
                 id="g1421">
                <g
                   fill="#9999ff"
                   id="g1419">
                  <path
                     d="M 57,164.1 V 61.2 c 0,-0.7 0.3,-1.1 1,-1.1 1.7,0 3.3,0 5.6,-0.1 2.4,-0.1 4.9,-0.1 7.6,-0.2 2.7,-0.1 5.6,-0.1 8.7,-0.2 3.1,-0.1 6.1,-0.1 9.1,-0.1 8.2,0 15,1 20.6,3.1 5,1.7 9.6,4.5 13.4,8.2 3.2,3.2 5.7,7.1 7.3,11.4 1.5,4.2 2.3,8.5 2.3,13 0,8.6 -2,15.7 -6,21.3 -4,5.6 -9.6,9.8 -16.1,12.2 -6.8,2.5 -14.3,3.4 -22.5,3.4 -2.4,0 -4,0 -5,-0.1 -1,-0.1 -2.4,-0.1 -4.3,-0.1 V 164 c 0.1,0.7 -0.4,1.3 -1.1,1.4 H 58.2 C 57.4,165.4 57,165 57,164.1 Z M 78.8,79.4 V 113 c 1.4,0.1 2.7,0.2 3.9,0.2 H 88 c 3.9,0 7.8,-0.6 11.5,-1.8 3.2,-0.9 6,-2.8 8.2,-5.3 2.1,-2.5 3.1,-5.9 3.1,-10.3 0.1,-3.1 -0.7,-6.2 -2.3,-8.9 -1.7,-2.6 -4.1,-4.6 -7,-5.7 -3.7,-1.5 -7.7,-2.1 -11.8,-2 -2.6,0 -4.9,0 -6.8,0.1 -2,-0.1 -3.4,0 -4.1,0.1 z"
                     id="path1415"
                     style="fill:#ffffff" />
                  <path
                     d="m 146.6,85.2 h 17.5 c 1,0 1.8,0.7 2.1,1.6 0.3,0.8 0.5,1.6 0.6,2.5 0.2,1 0.4,2.1 0.5,3.1 0.1,1.1 0.2,2.3 0.2,3.6 3,-3.5 6.6,-6.4 10.7,-8.6 4.6,-2.6 9.9,-3.9 15.2,-3.9 0.7,-0.1 1.3,0.4 1.4,1.1 v 19.9 c 0,0.8 -0.5,1.1 -1.6,1.1 -3.6,-0.1 -7.3,0.2 -10.8,1 -2.9,0.6 -5.7,1.5 -8.4,2.7 -1.9,0.9 -3.7,2.1 -5.1,3.7 v 51 c 0,1 -0.4,1.4 -1.3,1.4 h -19.7 c -0.8,0.1 -1.5,-0.4 -1.6,-1.2 v -55.8 c 0,-2.4 0,-4.9 -0.1,-7.5 -0.1,-2.6 -0.1,-5.2 -0.2,-7.8 0,-2.3 -0.2,-4.5 -0.4,-6.8 -0.1,-0.5 0.2,-1 0.7,-1.1 0,-0.1 0.2,-0.1 0.3,0 z"
                     id="path1417"
                     style="fill:#ffffff" />
                </g>
                <g
                   id="Layer_2_1_"
                   transform="translate(-949.13318,-306.0715)">
                  <g
                     id="Outlined_Mnemonics_Logos"
                     style="fill:#ffffff">
                    <g
                       id="Xd"
                       style="fill:#ffffff">
                      <path
                         class="st1"
                         d="m 126.2,61.5 -30,49.5 32,52.5 c 0.2,0.4 0.3,0.8 0.2,1.2 -0.1,0.4 -0.5,0.1 -1.1,0.2 h -22.9 c -1.6,0 -2.7,-0.1 -3.4,-1.1 -2.1,-4.2 -4.3,-8.3 -6.4,-12.5 -2.1,-4.1 -4.4,-8.3 -6.8,-12.6 -2.4,-4.3 -4.8,-8.6 -7.2,-13 h -0.2 c -2.1,4.3 -4.4,8.6 -6.7,12.9 -2.3,4.3 -4.6,8.6 -6.8,12.8 -2.3,4.2 -4.6,8.5 -6.9,12.6 -0.4,1 -1.2,1.1 -2.3,1.1 h -22 c -0.4,0 -0.7,0.2 -0.7,-0.3 -0.1,-0.4 0,-0.8 0.2,-1.1 L 66.3,112.7 36,61.4 C 35.7,61 35.6,60.6 35.8,60.4 36,60.1 36.4,60 36.8,60 h 22.7 c 0.5,0 1,0.1 1.4,0.2 0.4,0.2 0.7,0.5 1,0.9 1.9,4.3 4.1,8.6 6.4,12.9 2.4,4.3 4.7,8.5 7.2,12.7 2.4,4.2 4.6,8.4 6.7,12.7 h 0.2 c 2.1,-4.4 4.3,-8.7 6.5,-12.9 2.2,-4.2 4.5,-8.4 6.8,-12.6 2.3,-4.2 4.5,-8.5 6.7,-12.6 0.1,-0.4 0.3,-0.8 0.6,-1 0.4,-0.2 0.8,-0.3 1.3,-0.2 h 21.1 c 0.5,-0.1 1,0.2 1.1,0.7 0.1,0.1 -0.1,0.5 -0.3,0.7 z"
                         id="path1445"
                         style="fill:#ffffff" />
                      <path
                         class="st1"
                         d="m 172.4,167 c -7.4,0.1 -14.8,-1.4 -21.5,-4.5 -6.3,-2.9 -11.5,-7.7 -15.1,-13.6 -3.7,-6.1 -5.5,-13.7 -5.5,-22.8 -0.1,-7.4 1.8,-14.7 5.5,-21.1 3.8,-6.5 9.3,-11.9 15.9,-15.5 7,-3.9 15.4,-5.8 25.3,-5.8 0.5,0 1.2,0 2.1,0.1 0.9,0.1 1.9,0.1 3.1,0.2 V 52.4 c 0,-0.7 0.3,-1.1 1,-1.1 h 20.3 c 0.5,-0.1 0.9,0.3 1,0.7 0,0.1 0,0.2 0,0.2 v 95.2 c 0,1.8 0.1,3.8 0.2,6 0.2,2.1 0.3,4.1 0.4,5.8 0,0.7 -0.3,1.3 -1,1.6 -5.2,2.2 -10.7,3.8 -16.3,4.8 -5.1,0.9 -10.2,1.4 -15.4,1.4 z m 9.8,-20 v -44 c -0.9,-0.2 -1.8,-0.4 -2.7,-0.5 -1.1,-0.1 -2.2,-0.2 -3.3,-0.2 -3.9,0 -7.8,0.8 -11.3,2.6 -3.4,1.7 -6.3,4.2 -8.5,7.4 -2.2,3.2 -3.3,7.5 -3.3,12.7 -0.1,3.5 0.5,7 1.7,10.3 1,2.7 2.5,5.1 4.5,7.1 1.9,1.8 4.2,3.2 6.8,4 2.7,0.9 5.5,1.3 8.3,1.3 1.5,0 2.9,-0.1 4.2,-0.2 1.3,0.1 2.4,-0.1 3.6,-0.5 z"
                         id="path1447"
                         style="fill:#ffffff" />
                    </g>
                  </g>
                  <path
                     d="m -11957.236,-9185.2085 c -2.596,-18.2677 -8.923,-35.5917 -18.813,-51.4852 -8.622,-13.8709 -19.688,-26.2072 -32.896,-36.6924 l 0.04,-0.033 -138.712,-106.539 a 3.9562823,3.9562823 0 0 0 -0.313,-0.2486 c -4.613,-3.5328 -10.856,-5.4767 -17.576,-5.4767 -6.727,0 -13.215,1.9484 -18.259,5.488 -5.424,3.7883 -8.524,8.8148 -8.741,14.1653 -0.197,4.9918 2.183,9.795 6.724,13.5391 8.927,7.044 17.835,14.2414 26.755,21.4473 8.656,6.9967 17.575,14.2016 26.452,21.2163 l -169.901,-0.1143 c -19.43,0 -32.66,9.124 -35.381,24.3994 -1.197,6.6907 0.914,14.0474 5.632,19.6818 5.004,5.9728 12.271,9.2676 20.459,9.2676 h 12.954 c 17.892,0 35.864,-0.044 53.81,-0.087 l 17.116,-0.041 -154.198,114.0801 -0.612,0.4477 c -8.614,6.6015 -14.252,15.8571 -15.469,25.3915 -0.921,7.2233 0.762,13.8241 4.875,19.0956 4.9,6.2848 12.553,9.7414 21.547,9.7414 8.836,0 17.854,-3.3484 25.401,-9.4453 l 83.27,-68.1459 c -0.357,3.3276 -0.789,8.2096 -0.739,11.7527 0.09,5.6102 1.895,16.8669 4.746,26.0055 5.892,18.7812 15.816,35.9651 29.494,51.0559 14.235,15.7004 31.571,28.1495 51.521,36.9929 21.095,9.329 43.77,14.0646 67.4,14.0646 h 0.217 c 23.706,-0.057 46.453,-4.868 67.614,-14.3037 19.985,-8.9482 37.312,-21.4473 51.493,-37.1452 13.662,-15.1679 23.573,-32.3802 29.453,-51.1459 a 130.85778,130.85778 0 0 0 5.554,-28.5772 c 0.727,-9.3777 0.415,-18.9199 -0.914,-28.3608 z m -151.691,90.0178 c -52.076,0 -94.305,-37.7764 -94.305,-84.379 0,-46.5974 42.231,-84.3738 94.305,-84.3738 52.077,0 94.302,37.7764 94.302,84.3738 0,46.6026 -42.225,84.379 -94.302,84.379 z m 54.385,-91.7937 c 0.767,13.909 -4.788,26.8237 -14.544,36.3841 -9.925,9.7396 -24.084,15.8572 -39.921,15.8572 -15.827,0 -29.992,-6.1176 -39.918,-15.8572 -9.753,-9.5604 -15.297,-22.4735 -14.534,-36.3727 0.749,-13.5106 7.34,-25.4368 17.266,-33.8809 9.762,-8.3032 22.869,-13.3686 37.186,-13.3686 14.32,0 27.423,5.0673 37.185,13.3686 9.931,8.4441 16.524,20.3614 17.28,33.8695 z"
                     id="path1502"
                     style="fill:#222222;fill-opacity:1;stroke-width:0.865897" />
                </g>
              </g>
            </g>
          </g>
        </g>
      </g>
    </g>
  </g>
  <style
     type="text/css"
     id="style1438">
	.st0{fill:#470137;}
	.st1{fill:#FF61F6;}
</style>
</svg>
