<?xml version="1.0" encoding="UTF-8" standalone="no"?>
<svg
   xmlns:dc="http://purl.org/dc/elements/1.1/"
   xmlns:cc="http://creativecommons.org/ns#"
   xmlns:rdf="http://www.w3.org/1999/02/22-rdf-syntax-ns#"
   xmlns:svg="http://www.w3.org/2000/svg"
   xmlns="http://www.w3.org/2000/svg"
   xmlns:sodipodi="http://sodipodi.sourceforge.net/DTD/sodipodi-0.dtd"
   xmlns:inkscape="http://www.inkscape.org/namespaces/inkscape"
   height="59.999954"
   width="55.756401"
   version="1.1"
   id="svg26"
   sodipodi:docname="crazytalk.svg"
   inkscape:version="1.0.1 (3bc2e813f5, 2020-09-07)">
  <metadata
     id="metadata32">
    <rdf:RDF>
      <cc:Work
         rdf:about="">
        <dc:format>image/svg+xml</dc:format>
        <dc:type
           rdf:resource="http://purl.org/dc/dcmitype/StillImage" />
        <dc:title />
      </cc:Work>
    </rdf:RDF>
  </metadata>
  <defs
     id="defs30">
    <clipPath
       clipPathUnits="userSpaceOnUse"
       id="clipPath995">
      <path
         d="M 0,1500 H 3000 V 0 H 0 Z"
         id="path993" />
    </clipPath>
    <clipPath
       clipPathUnits="userSpaceOnUse"
       id="clipPath1009">
      <path
         d="M 0,1500 H 3000 V 0 H 0 Z"
         id="path1007" />
    </clipPath>
    <clipPath
       clipPathUnits="userSpaceOnUse"
       id="clipPath1029">
      <path
         d="M 0,1500 H 3000 V 0 H 0 Z"
         id="path1027" />
    </clipPath>
    <clipPath
       id="clipPath18"
       clipPathUnits="userSpaceOnUse">
      <path
         id="path16"
         d="M 0,1500 H 3000 V 0 H 0 Z" />
    </clipPath>
    <clipPath
       id="clipPath32"
       clipPathUnits="userSpaceOnUse">
      <path
         id="path30"
         d="M 0,1500 H 3000 V 0 H 0 Z" />
    </clipPath>
    <clipPath
       id="clipPath52"
       clipPathUnits="userSpaceOnUse">
      <path
         id="path50"
         d="M 0,1500 H 3000 V 0 H 0 Z" />
    </clipPath>
  </defs>
  <sodipodi:namedview
     pagecolor="#ffffff"
     bordercolor="#666666"
     borderopacity="1"
     objecttolerance="10"
     gridtolerance="10"
     guidetolerance="10"
     inkscape:pageopacity="0"
     inkscape:pageshadow="2"
     inkscape:window-width="1920"
     inkscape:window-height="1027"
     id="namedview28"
     showgrid="false"
     inkscape:zoom="10.072727"
     inkscape:cx="18.395828"
     inkscape:cy="23.59698"
     inkscape:window-x="-8"
     inkscape:window-y="-8"
     inkscape:window-maximized="1"
     inkscape:current-layer="Layer_2_1_"
     inkscape:document-rotation="0" />
  <g
     stroke-width="0.166667"
     id="g916"
     transform="translate(7858.0824,3972.5209)" />
  <g
     id="g987"
     inkscape:label="adobe-experience-manager-seeklogo.com"
     transform="matrix(0.04056964,0,0,-0.04056964,5862.588,3384.0085)">
    <g
       id="g1023">
      <g
         id="g1155"
         transform="matrix(1.9257011,0,0,-1.9257011,-13328.062,10549.122)">
        <g
           id="g1232"
           transform="matrix(12.8,0,0,12.8,-25216.659,2558.4833)">
          <g
             id="g1248"
             transform="matrix(0.15625,0,0,0.15625,-964.75167,-1121.9065)">
            <g
               style="clip-rule:evenodd;fill-rule:evenodd;stroke-linejoin:round;stroke-miterlimit:2"
               id="g1436"
               transform="matrix(1.0666667,0,0,1.0666667,-850.10638,-1612.754)">
              <g
                 fill-rule="nonzero"
                 transform="translate(159.99996,83)"
                 id="g1421">
                <g
                   fill="#9999ff"
                   id="g1419">
                  <path
                     d="M 57,164.1 V 61.2 c 0,-0.7 0.3,-1.1 1,-1.1 1.7,0 3.3,0 5.6,-0.1 2.4,-0.1 4.9,-0.1 7.6,-0.2 2.7,-0.1 5.6,-0.1 8.7,-0.2 3.1,-0.1 6.1,-0.1 9.1,-0.1 8.2,0 15,1 20.6,3.1 5,1.7 9.6,4.5 13.4,8.2 3.2,3.2 5.7,7.1 7.3,11.4 1.5,4.2 2.3,8.5 2.3,13 0,8.6 -2,15.7 -6,21.3 -4,5.6 -9.6,9.8 -16.1,12.2 -6.8,2.5 -14.3,3.4 -22.5,3.4 -2.4,0 -4,0 -5,-0.1 -1,-0.1 -2.4,-0.1 -4.3,-0.1 V 164 c 0.1,0.7 -0.4,1.3 -1.1,1.4 H 58.2 C 57.4,165.4 57,165 57,164.1 Z M 78.8,79.4 V 113 c 1.4,0.1 2.7,0.2 3.9,0.2 H 88 c 3.9,0 7.8,-0.6 11.5,-1.8 3.2,-0.9 6,-2.8 8.2,-5.3 2.1,-2.5 3.1,-5.9 3.1,-10.3 0.1,-3.1 -0.7,-6.2 -2.3,-8.9 -1.7,-2.6 -4.1,-4.6 -7,-5.7 -3.7,-1.5 -7.7,-2.1 -11.8,-2 -2.6,0 -4.9,0 -6.8,0.1 -2,-0.1 -3.4,0 -4.1,0.1 z"
                     id="path1415"
                     style="fill:#ffffff" />
                  <path
                     d="m 146.6,85.2 h 17.5 c 1,0 1.8,0.7 2.1,1.6 0.3,0.8 0.5,1.6 0.6,2.5 0.2,1 0.4,2.1 0.5,3.1 0.1,1.1 0.2,2.3 0.2,3.6 3,-3.5 6.6,-6.4 10.7,-8.6 4.6,-2.6 9.9,-3.9 15.2,-3.9 0.7,-0.1 1.3,0.4 1.4,1.1 v 19.9 c 0,0.8 -0.5,1.1 -1.6,1.1 -3.6,-0.1 -7.3,0.2 -10.8,1 -2.9,0.6 -5.7,1.5 -8.4,2.7 -1.9,0.9 -3.7,2.1 -5.1,3.7 v 51 c 0,1 -0.4,1.4 -1.3,1.4 h -19.7 c -0.8,0.1 -1.5,-0.4 -1.6,-1.2 v -55.8 c 0,-2.4 0,-4.9 -0.1,-7.5 -0.1,-2.6 -0.1,-5.2 -0.2,-7.8 0,-2.3 -0.2,-4.5 -0.4,-6.8 -0.1,-0.5 0.2,-1 0.7,-1.1 0,-0.1 0.2,-0.1 0.3,0 z"
                     id="path1417"
                     style="fill:#ffffff" />
                </g>
                <g
                   id="Layer_2_1_"
                   transform="translate(-949.13318,-306.0715)">
                  <g
                     id="Outlined_Mnemonics_Logos"
                     style="fill:#ffffff">
                    <g
                       id="Xd"
                       style="fill:#ffffff">
                      <path
                         class="st1"
                         d="m 126.2,61.5 -30,49.5 32,52.5 c 0.2,0.4 0.3,0.8 0.2,1.2 -0.1,0.4 -0.5,0.1 -1.1,0.2 h -22.9 c -1.6,0 -2.7,-0.1 -3.4,-1.1 -2.1,-4.2 -4.3,-8.3 -6.4,-12.5 -2.1,-4.1 -4.4,-8.3 -6.8,-12.6 -2.4,-4.3 -4.8,-8.6 -7.2,-13 h -0.2 c -2.1,4.3 -4.4,8.6 -6.7,12.9 -2.3,4.3 -4.6,8.6 -6.8,12.8 -2.3,4.2 -4.6,8.5 -6.9,12.6 -0.4,1 -1.2,1.1 -2.3,1.1 h -22 c -0.4,0 -0.7,0.2 -0.7,-0.3 -0.1,-0.4 0,-0.8 0.2,-1.1 L 66.3,112.7 36,61.4 C 35.7,61 35.6,60.6 35.8,60.4 36,60.1 36.4,60 36.8,60 h 22.7 c 0.5,0 1,0.1 1.4,0.2 0.4,0.2 0.7,0.5 1,0.9 1.9,4.3 4.1,8.6 6.4,12.9 2.4,4.3 4.7,8.5 7.2,12.7 2.4,4.2 4.6,8.4 6.7,12.7 h 0.2 c 2.1,-4.4 4.3,-8.7 6.5,-12.9 2.2,-4.2 4.5,-8.4 6.8,-12.6 2.3,-4.2 4.5,-8.5 6.7,-12.6 0.1,-0.4 0.3,-0.8 0.6,-1 0.4,-0.2 0.8,-0.3 1.3,-0.2 h 21.1 c 0.5,-0.1 1,0.2 1.1,0.7 0.1,0.1 -0.1,0.5 -0.3,0.7 z"
                         id="path1445"
                         style="fill:#ffffff" />
                      <path
                         class="st1"
                         d="m 172.4,167 c -7.4,0.1 -14.8,-1.4 -21.5,-4.5 -6.3,-2.9 -11.5,-7.7 -15.1,-13.6 -3.7,-6.1 -5.5,-13.7 -5.5,-22.8 -0.1,-7.4 1.8,-14.7 5.5,-21.1 3.8,-6.5 9.3,-11.9 15.9,-15.5 7,-3.9 15.4,-5.8 25.3,-5.8 0.5,0 1.2,0 2.1,0.1 0.9,0.1 1.9,0.1 3.1,0.2 V 52.4 c 0,-0.7 0.3,-1.1 1,-1.1 h 20.3 c 0.5,-0.1 0.9,0.3 1,0.7 0,0.1 0,0.2 0,0.2 v 95.2 c 0,1.8 0.1,3.8 0.2,6 0.2,2.1 0.3,4.1 0.4,5.8 0,0.7 -0.3,1.3 -1,1.6 -5.2,2.2 -10.7,3.8 -16.3,4.8 -5.1,0.9 -10.2,1.4 -15.4,1.4 z m 9.8,-20 v -44 c -0.9,-0.2 -1.8,-0.4 -2.7,-0.5 -1.1,-0.1 -2.2,-0.2 -3.3,-0.2 -3.9,0 -7.8,0.8 -11.3,2.6 -3.4,1.7 -6.3,4.2 -8.5,7.4 -2.2,3.2 -3.3,7.5 -3.3,12.7 -0.1,3.5 0.5,7 1.7,10.3 1,2.7 2.5,5.1 4.5,7.1 1.9,1.8 4.2,3.2 6.8,4 2.7,0.9 5.5,1.3 8.3,1.3 1.5,0 2.9,-0.1 4.2,-0.2 1.3,0.1 2.4,-0.1 3.6,-0.5 z"
                         id="path1447"
                         style="fill:#ffffff" />
                    </g>
                  </g>
                  <path
                     style="fill:#222222;fill-opacity:1;stroke-width:1.38607"
                     d="m -12571.916,-10111.859 -4.64,-2.828 0.944,-9.396 c 0.634,-6.306 0.23,-13.468 -1.228,-21.77 -3.811,-21.704 -3.799,-21.679 -13.11,-24.931 l -8.172,-2.853 -4.346,4.566 c -5.36,5.633 -13.118,9.692 -22.285,11.657 -7.524,1.614 -8.78,3.895 -4.942,8.971 3.619,4.784 2.578,8.589 -3.44,12.572 -5.285,3.497 -5.695,3.562 -8.189,1.306 -4.678,-4.234 -8.802,-15.888 -8.034,-22.705 1.009,-8.949 6.312,-13.68 19.167,-17.1 5.634,-1.5 11.431,-3.896 12.884,-5.326 2.59,-2.551 2.499,-2.727 -4.911,-9.499 -10.057,-9.192 -15.2,-18.825 -16.11,-30.178 -0.637,-7.927 -0.251,-9.788 3.695,-17.802 4.791,-9.732 11.629,-16.516 23.428,-23.246 5.053,-2.881 7.112,-4.835 6.574,-6.238 -0.431,-1.123 -4.638,-14.43 -9.348,-29.573 l -8.564,-27.532 -13.257,0.53 c -32.119,1.282 -65.052,-8.432 -82.431,-24.315 -5.42,-4.955 -9.28,-10.207 -12.936,-17.606 -4.951,-10.021 -5.208,-11.204 -5.137,-23.782 0.08,-14.543 1.369,-18.306 9.837,-28.763 8.26,-10.199 26.252,-17.048 44.784,-17.048 9.59,0 31.09,3.564 42.109,6.98 l 8.095,2.509 2.585,-5.843 c 1.421,-3.213 2.995,-8.408 3.495,-11.543 0.777,-4.856 0.492,-5.924 -1.925,-7.217 -1.561,-0.835 -4.081,-1.52 -5.602,-1.52 -2.244,0 -3.07,-1.471 -4.385,-7.804 -1.959,-9.438 -0.84,-10.703 8.336,-9.425 16.019,2.23 23.9,13.4 20.841,29.535 -1.499,7.899 -12.171,36.208 -13.652,36.207 -0.513,0 -6.951,-2.151 -14.304,-4.78 -29.119,-10.408 -55.23,-11.883 -69.334,-3.915 -21.959,12.405 -16.355,45.181 10.024,58.639 15.582,7.95 41.814,13.279 59.423,12.072 32.178,-2.205 44.695,-14.188 38.216,-36.586 -1.802,-6.23 -3.784,-9.449 -8.572,-13.925 l -6.228,-5.822 8.781,-16.154 c 4.83,-8.885 11.171,-18.636 14.092,-21.67 13,-13.506 28.499,-12.371 36.043,2.638 5.935,11.806 5.932,12.539 -0.04,14.107 -13.177,3.457 -12.242,3.625 -14.088,-2.534 -0.928,-3.098 -2.475,-5.632 -3.438,-5.632 -2.699,0 -9.697,8.153 -14.529,16.92 l -4.357,7.912 4.144,6.668 c 4.975,8.002 8.832,24.835 7.533,32.879 -2.144,13.283 -9.989,24.7 -20.729,30.164 -3.049,1.553 -5.692,2.946 -5.873,3.096 -0.388,0.324 17.316,57.723 18.021,58.429 0.265,0.266 2.942,-0.274 5.949,-1.198 3.443,-1.058 14.956,-1.681 31.108,-1.681 23.631,0 26.699,0.293 39.092,3.747 15.357,4.279 30.928,11.637 39.69,18.755 5.999,4.872 6.033,4.879 13.338,3.246 20.883,-4.674 31.241,-21.324 31.241,-50.217 0,-11.017 -0.319,-12.457 -3.642,-16.408 -7.956,-9.454 -4.483,-23.656 6.686,-27.339 10.758,-3.547 20.453,2.97 21.561,14.495 0.549,5.72 0.125,7.316 -2.972,10.988 -3.393,4.032 -3.646,5.35 -4.115,21.421 -1.058,36.243 -14.525,56.197 -43.416,64.326 -1.227,0.345 -1.274,1.796 -0.188,5.731 3.204,11.607 -0.98,25.59 -10.967,36.644 l -5.054,5.595 1.6,7.626 c 3.555,16.955 12.119,30.382 23.463,36.783 8.445,4.767 9.906,8.079 6.82,15.463 -1.719,4.112 -2.832,5.049 -6.012,5.049 -14.279,0 -34.594,-22.823 -41.331,-46.434 -1.306,-4.573 -2.489,-8.457 -2.633,-8.63 -0.142,-0.171 -3.34,0.869 -7.106,2.311 l -6.849,2.624 0.125,8.084 c 0.151,9.688 3.893,17.804 11.767,25.522 2.989,2.928 5.433,6.381 5.433,7.675 0,3.642 -6.752,11.62 -9.833,11.62 -1.518,0 -5.852,-2.892 -9.629,-6.425 -8.687,-8.125 -15.929,-22.231 -17.248,-33.59 l -0.97,-8.358 -20.317,-0.416 c -11.174,-0.229 -20.455,-0.382 -20.625,-0.339 -0.17,0.04 0.278,2.226 0.996,4.852 2.731,9.98 4.047,28.796 2.63,37.591 -2.085,12.947 -4.693,14.761 -13.501,9.391 z m 49.462,-69.964 c 16.822,-1.579 33.647,-8.14 43.345,-16.902 7.597,-6.864 10.014,-11.95 9.183,-19.324 -2.64,-23.424 -49.194,-42.258 -93.298,-37.746 -32.776,3.354 -57.417,18.15 -57.417,34.482 0,14.357 17.802,28.683 44.857,36.097 11.214,3.074 31.123,5.404 39.694,4.647 2.667,-0.237 8.803,-0.8 13.636,-1.254 z"
                     id="path1527"
                     sodipodi:nodetypes="ccccscsscsscsssscccccsccccscccscsscccccccsscccscssscccccsscsssssccscscscssssscsccssscscssscccssssssss" />
                </g>
              </g>
            </g>
          </g>
        </g>
      </g>
    </g>
  </g>
  <style
     type="text/css"
     id="style1438">
	.st0{fill:#470137;}
	.st1{fill:#FF61F6;}
</style>
</svg>
