<?xml version="1.0" encoding="UTF-8" standalone="no"?>
<svg
   xmlns:dc="http://purl.org/dc/elements/1.1/"
   xmlns:cc="http://creativecommons.org/ns#"
   xmlns:rdf="http://www.w3.org/1999/02/22-rdf-syntax-ns#"
   xmlns:svg="http://www.w3.org/2000/svg"
   xmlns="http://www.w3.org/2000/svg"
   xmlns:sodipodi="http://sodipodi.sourceforge.net/DTD/sodipodi-0.dtd"
   xmlns:inkscape="http://www.inkscape.org/namespaces/inkscape"
   height="60"
   width="60"
   version="1.1"
   id="svg26"
   sodipodi:docname="illustrator.svg"
   inkscape:version="1.0.1 (3bc2e813f5, 2020-09-07)">
  <metadata
     id="metadata32">
    <rdf:RDF>
      <cc:Work
         rdf:about="">
        <dc:format>image/svg+xml</dc:format>
        <dc:type
           rdf:resource="http://purl.org/dc/dcmitype/StillImage" />
        <dc:title />
      </cc:Work>
    </rdf:RDF>
  </metadata>
  <defs
     id="defs30">
    <clipPath
       clipPathUnits="userSpaceOnUse"
       id="clipPath995">
      <path
         d="M 0,1500 H 3000 V 0 H 0 Z"
         id="path993" />
    </clipPath>
    <clipPath
       clipPathUnits="userSpaceOnUse"
       id="clipPath1009">
      <path
         d="M 0,1500 H 3000 V 0 H 0 Z"
         id="path1007" />
    </clipPath>
    <clipPath
       clipPathUnits="userSpaceOnUse"
       id="clipPath1029">
      <path
         d="M 0,1500 H 3000 V 0 H 0 Z"
         id="path1027" />
    </clipPath>
    <clipPath
       id="clipPath18"
       clipPathUnits="userSpaceOnUse">
      <path
         id="path16"
         d="M 0,1500 H 3000 V 0 H 0 Z" />
    </clipPath>
    <clipPath
       id="clipPath32"
       clipPathUnits="userSpaceOnUse">
      <path
         id="path30"
         d="M 0,1500 H 3000 V 0 H 0 Z" />
    </clipPath>
    <clipPath
       id="clipPath52"
       clipPathUnits="userSpaceOnUse">
      <path
         id="path50"
         d="M 0,1500 H 3000 V 0 H 0 Z" />
    </clipPath>
  </defs>
  <sodipodi:namedview
     pagecolor="#ffffff"
     bordercolor="#666666"
     borderopacity="1"
     objecttolerance="10"
     gridtolerance="10"
     guidetolerance="10"
     inkscape:pageopacity="0"
     inkscape:pageshadow="2"
     inkscape:window-width="1920"
     inkscape:window-height="1027"
     id="namedview28"
     showgrid="false"
     inkscape:zoom="3.5612469"
     inkscape:cx="42.291702"
     inkscape:cy="-14.893449"
     inkscape:window-x="-8"
     inkscape:window-y="-8"
     inkscape:window-maximized="1"
     inkscape:current-layer="g1248"
     inkscape:document-rotation="0" />
  <g
     stroke-width="0.166667"
     id="g916"
     transform="translate(5497.4036,2033.0885)" />
  <g
     id="g987"
     inkscape:label="adobe-experience-manager-seeklogo.com"
     transform="matrix(0.04056964,0,0,-0.04056964,3501.9092,1444.5761)">
    <g
       id="g1023">
      <g
         id="g1155"
         transform="matrix(1.9257011,0,0,-1.9257011,-13328.062,10549.122)">
        <g
           id="g1232"
           transform="matrix(12.8,0,0,12.8,-25216.659,2558.4833)">
          <g
             id="g1248"
             transform="matrix(0.15625,0,0,0.15625,-964.75167,-1121.9065)">
            <g
               id="g1398"
               transform="matrix(22.760951,0,0,22.760951,-168.90458,-605.29308)"
               style="fill:#222222;fill-opacity:1">
              <g
                 id="g1340"
                 style="fill:#222222;fill-opacity:1">
                <g
                   id="g1338"
                   style="fill:#222222;fill-opacity:1">
                  <path
                     style="fill:#222222;fill-opacity:1"
                     d="M 6.847,5.772 H 6.822 C 6.695,6.283 6.568,6.932 6.427,7.429 L 5.917,9.25 H 7.815 L 7.28,7.429 C 7.128,6.919 6.975,6.283 6.847,5.772 Z"
                     id="path1334" />
                  <path
                     style="fill:#222222;fill-opacity:1"
                     d="M 15.837,0 H 1.033 C 0.462,0 0,0.462 0,1.033 v 14.805 c 0,0.57 0.462,1.033 1.033,1.033 h 14.805 c 0.57,0 1.033,-0.463 1.033,-1.033 V 1.033 C 16.871,0.463 16.408,0 15.837,0 Z M 8.758,12.905 8.095,10.702 H 5.638 L 5.026,12.905 H 3.014 L 5.638,4.322 h 2.546 l 2.663,8.583 z m 5.035,0 H 11.856 V 6.678 h 1.937 z m -0.98,-6.991 c -0.611,0 -1.019,-0.434 -1.007,-0.969 -0.012,-0.561 0.396,-0.979 1.021,-0.979 0.623,0 1.018,0.419 1.03,0.979 0,0.535 -0.407,0.969 -1.044,0.969 z"
                     id="path1336" />
                </g>
              </g>
              <g
                 id="g1342"
                 style="fill:#222222;fill-opacity:1" />
              <g
                 id="g1344"
                 style="fill:#222222;fill-opacity:1" />
              <g
                 id="g1346"
                 style="fill:#222222;fill-opacity:1" />
              <g
                 id="g1348"
                 style="fill:#222222;fill-opacity:1" />
              <g
                 id="g1350"
                 style="fill:#222222;fill-opacity:1" />
              <g
                 id="g1352"
                 style="fill:#222222;fill-opacity:1" />
              <g
                 id="g1354"
                 style="fill:#222222;fill-opacity:1" />
              <g
                 id="g1356"
                 style="fill:#222222;fill-opacity:1" />
              <g
                 id="g1358"
                 style="fill:#222222;fill-opacity:1" />
              <g
                 id="g1360"
                 style="fill:#222222;fill-opacity:1" />
              <g
                 id="g1362"
                 style="fill:#222222;fill-opacity:1" />
              <g
                 id="g1364"
                 style="fill:#222222;fill-opacity:1" />
              <g
                 id="g1366"
                 style="fill:#222222;fill-opacity:1" />
              <g
                 id="g1368"
                 style="fill:#222222;fill-opacity:1" />
              <g
                 id="g1370"
                 style="fill:#222222;fill-opacity:1" />
            </g>
          </g>
        </g>
      </g>
    </g>
  </g>
</svg>
