<?xml version="1.0" encoding="UTF-8" standalone="no"?>
<svg
   xmlns:dc="http://purl.org/dc/elements/1.1/"
   xmlns:cc="http://creativecommons.org/ns#"
   xmlns:rdf="http://www.w3.org/1999/02/22-rdf-syntax-ns#"
   xmlns:svg="http://www.w3.org/2000/svg"
   xmlns="http://www.w3.org/2000/svg"
   xmlns:sodipodi="http://sodipodi.sourceforge.net/DTD/sodipodi-0.dtd"
   xmlns:inkscape="http://www.inkscape.org/namespaces/inkscape"
   height="60"
   width="62.318886"
   version="1.1"
   id="svg26"
   sodipodi:docname="jquery.svg"
   inkscape:version="1.0.1 (3bc2e813f5, 2020-09-07)">
  <metadata
     id="metadata32">
    <rdf:RDF>
      <cc:Work
         rdf:about="">
        <dc:format>image/svg+xml</dc:format>
        <dc:type
           rdf:resource="http://purl.org/dc/dcmitype/StillImage" />
        <dc:title />
      </cc:Work>
    </rdf:RDF>
  </metadata>
  <defs
     id="defs30" />
  <sodipodi:namedview
     pagecolor="#ffffff"
     bordercolor="#666666"
     borderopacity="1"
     objecttolerance="10"
     gridtolerance="10"
     guidetolerance="10"
     inkscape:pageopacity="0"
     inkscape:pageshadow="2"
     inkscape:window-width="1920"
     inkscape:window-height="1027"
     id="namedview28"
     showgrid="false"
     inkscape:zoom="5.0363636"
     inkscape:cx="99.999903"
     inkscape:cy="16.485"
     inkscape:window-x="-8"
     inkscape:window-y="-8"
     inkscape:window-maximized="1"
     inkscape:current-layer="svg26"
     inkscape:document-rotation="0" />
  <path
     d="m 3.956045,14.07967 c -5.5154065,7.926333 -4.8288052,18.242733 -0.6153335,26.664462 l 0.5214688,0.978623 c 0.038248,0.07475 0.0817,0.147758 0.1216777,0.21728 0.069532,0.133845 0.1460131,0.260734 0.2190181,0.392839 l 0.3997928,0.690079 0.2294457,0.377196 0.6674804,1.037723 a 34.486501,34.486501 0 0 0 0.6761724,0.975147 l 0.1338454,0.179038 a 31.913918,31.913918 0 0 0 0.6170722,0.818708 l 0.2311844,0.295499 0.5701399,0.698768 0.2172794,0.260736 a 36.572378,36.572378 0 0 0 0.7926324,0.905618 c 0.02781,0.02955 0.034758,0.03476 0.046926,0.05215 a 39.840251,39.840251 0 0 0 0.8065388,0.849995 l 0.2607344,0.260735 0.6431467,0.630977 0.26421,0.250305 c 0.290285,0.272902 0.584047,0.521469 0.881284,0.803063 0.06431,0.05737 0.116459,0.09907 0.16687,0.142539 l 0.799586,0.695293 0.347645,0.264211 0.667482,0.521468 0.356337,0.271166 0.74744,0.521468 0.272902,0.194683 c 0.02608,0.01739 0.04867,0.03476 0.07474,0.05214 0.239876,0.165131 0.483228,0.323311 0.730056,0.48149 l 0.312882,0.208588 a 40.535545,40.535545 0 0 0 1.140279,0.698769 l 0.312882,0.177299 0.85521,0.479752 c 0.173822,0.08343 0.316358,0.163392 0.472799,0.243352 l 0.611858,0.318096 0.139064,0.06953 0.250306,0.121678 0.969932,0.448464 0.20511,0.09212 a 34.729853,34.729853 0 0 0 1.13159,0.469322 l 0.274639,0.107765 1.067275,0.396315 0.133845,0.04693 a 34.017178,34.017178 0 0 0 1.190688,0.389364 l 0.286807,0.08692 c 0.406746,0.121678 0.810017,0.269427 1.22893,0.347648 26.674892,4.867045 34.423924,-16.029966 34.423924,-16.029966 -6.507936,8.47909 -18.077601,10.714455 -29.00412,8.225309 -0.4137,-0.09387 -0.816968,-0.222494 -1.221976,-0.342431 l -0.30419,-0.09212 a 38.710402,38.710402 0 0 1 -1.176784,-0.382411 l -0.161655,-0.05736 a 36.989553,36.989553 0 0 1 -1.037723,-0.38415 L 27.615103,50.087116 C 27.237907,49.937629 26.864187,49.782925 26.495681,49.62127 L 26.269711,49.5222 25.325853,49.082428 25.05295,48.952057 24.322893,48.580075 23.836188,48.324556 C 23.540689,48.150732 23.250405,48.001244 22.96012,47.834374 l -0.295499,-0.165132 a 42.395452,42.395452 0 0 1 -1.14028,-0.698769 c -0.10429,-0.06606 -0.205111,-0.139065 -0.307666,-0.20511 L 20.40492,46.243892 20.144185,46.05964 19.379364,45.503407 18.346856,44.724679 18.03745,44.47785 17.175287,43.751269 c -0.02956,-0.02608 -0.06257,-0.05215 -0.09387,-0.07995 A 34.104089,34.104089 0 0 1 16.17754,42.847393 l -0.25552,-0.243352 -0.651837,-0.637932 -0.255519,-0.25552 -0.799586,-0.844779 a 0.88649774,0.88649774 0 0 0 -0.03998,-0.04172 32.487536,32.487536 0 0 1 -0.810014,-0.923 L 13.153024,39.649046 12.568979,38.92768 12.355177,38.661731 11.680743,37.764803 C 5.6038872,29.47692 3.4206697,18.044575 8.2772864,8.6563891 M 21.110645,7.4361511 C 17.121405,13.17579 17.338684,20.860508 20.450118,26.932148 a 25.395553,25.395553 0 0 0 1.764304,2.944565 c 0.597951,0.856947 1.260217,1.877289 2.051112,2.56389 a 22.475325,22.475325 0 0 0 0.895189,0.928215 9.4385936,9.4385936 0 0 0 0.236399,0.232923 l 0.91431,0.869115 c 0.01215,0.01044 0.02434,0.02259 0.03476,0.03476 0.356338,0.312882 0.695292,0.604905 1.077704,0.891714 l 0.243352,0.173823 a 26.212521,26.212521 0 0 0 1.117682,0.81523 c 0.01215,0.0087 0.02086,0.01739 0.03476,0.02434 0.168609,0.116458 0.338956,0.225971 0.509303,0.335479 0.0817,0.05215 0.159916,0.10951 0.243352,0.159917 0.272902,0.173823 0.547543,0.34417 0.827398,0.507564 l 0.116459,0.06953 0.730058,0.408485 c 0.0869,0.04867 0.173823,0.09039 0.260734,0.135575 l 0.512779,0.264211 c 0.02608,0.01215 0.05215,0.02434 0.07823,0.03476 a 26.247286,26.247286 0 0 0 1.067275,0.497133 c 0.07823,0.03476 0.173823,0.06431 0.236399,0.09734 l 0.876068,0.354599 0.375459,0.139065 c 0.265949,0.09907 0.533637,0.173823 0.803061,0.278117 l 0.347648,0.116458 c 0.38241,0.121678 0.764821,0.269425 1.164614,0.335478 20.598036,3.412148 25.350359,-12.445732 25.350359,-12.445732 -4.286478,6.174195 -12.584792,9.118758 -21.444555,6.819079 a 25.430318,25.430318 0 0 1 -1.166344,-0.337206 c -0.118204,-0.03476 -0.232923,-0.07474 -0.351123,-0.112985 a 23.63994,23.63994 0 0 1 -0.81524,-0.281597 L 38.17312,33.646929 A 25.708434,25.708434 0 0 1 37.295313,33.29233 L 37.02415,33.174126 a 24.509055,24.509055 0 0 1 -1.074228,-0.498872 c -0.182514,-0.08692 -0.359814,-0.182513 -0.521469,-0.274641 l -0.312882,-0.159907 a 25.586758,25.586758 0 0 1 -0.681386,-0.384149 l -0.163394,-0.09212 C 33.992674,31.60104 33.718035,31.416788 33.445131,31.242965 33.361701,31.19082 33.28,31.131726 33.196564,31.076094 l -0.517993,-0.335478 c -0.378933,-0.260735 -0.747438,-0.521469 -1.112467,-0.813492 l -0.250305,-0.19642 C 27.439544,26.671417 24.362875,22.485758 22.902762,17.743864 21.373118,12.82467 21.686,7.3023104 24.354184,2.8211525 M 35.478862,2.4126678 c -2.351827,3.4764621 -2.583011,7.7577242 -0.950813,11.5800932 1.738231,4.057032 5.245981,7.239732 9.362112,8.748517 l 0.51104,0.177299 0.225969,0.06953 0.733534,0.212065 c 11.373245,2.197124 14.456866,-5.835241 15.296432,-7.017239 -2.702949,3.890162 -7.243208,4.823591 -12.814238,3.471248 a 14.496846,14.496846 0 0 1 -1.348867,-0.415438 16.478428,16.478428 0 0 1 -1.60091,-0.665742 C 43.902329,18.09846 42.960207,17.521367 42.085878,16.86084 37.10063,13.078448 34.003103,5.8613139 37.257073,0"
     fill="#0868ac"
     id="path24"
     style="fill:#222222;fill-opacity:1;stroke-width:1.73823" />
</svg>
