<?xml version="1.0" encoding="UTF-8" standalone="no"?>
<svg
   xmlns:dc="http://purl.org/dc/elements/1.1/"
   xmlns:cc="http://creativecommons.org/ns#"
   xmlns:rdf="http://www.w3.org/1999/02/22-rdf-syntax-ns#"
   xmlns:svg="http://www.w3.org/2000/svg"
   xmlns="http://www.w3.org/2000/svg"
   xmlns:sodipodi="http://sodipodi.sourceforge.net/DTD/sodipodi-0.dtd"
   xmlns:inkscape="http://www.inkscape.org/namespaces/inkscape"
   height="60"
   width="60.013744"
   version="1.1"
   id="svg26"
   sodipodi:docname="photoshop.svg"
   inkscape:version="1.0.1 (3bc2e813f5, 2020-09-07)">
  <metadata
     id="metadata32">
    <rdf:RDF>
      <cc:Work
         rdf:about="">
        <dc:format>image/svg+xml</dc:format>
        <dc:type
           rdf:resource="http://purl.org/dc/dcmitype/StillImage" />
        <dc:title />
      </cc:Work>
    </rdf:RDF>
  </metadata>
  <defs
     id="defs30">
    <clipPath
       clipPathUnits="userSpaceOnUse"
       id="clipPath995">
      <path
         d="M 0,1500 H 3000 V 0 H 0 Z"
         id="path993" />
    </clipPath>
    <clipPath
       clipPathUnits="userSpaceOnUse"
       id="clipPath1009">
      <path
         d="M 0,1500 H 3000 V 0 H 0 Z"
         id="path1007" />
    </clipPath>
    <clipPath
       clipPathUnits="userSpaceOnUse"
       id="clipPath1029">
      <path
         d="M 0,1500 H 3000 V 0 H 0 Z"
         id="path1027" />
    </clipPath>
    <clipPath
       id="clipPath18"
       clipPathUnits="userSpaceOnUse">
      <path
         id="path16"
         d="M 0,1500 H 3000 V 0 H 0 Z" />
    </clipPath>
    <clipPath
       id="clipPath32"
       clipPathUnits="userSpaceOnUse">
      <path
         id="path30"
         d="M 0,1500 H 3000 V 0 H 0 Z" />
    </clipPath>
    <clipPath
       id="clipPath52"
       clipPathUnits="userSpaceOnUse">
      <path
         id="path50"
         d="M 0,1500 H 3000 V 0 H 0 Z" />
    </clipPath>
  </defs>
  <sodipodi:namedview
     pagecolor="#ffffff"
     bordercolor="#666666"
     borderopacity="1"
     objecttolerance="10"
     gridtolerance="10"
     guidetolerance="10"
     inkscape:pageopacity="0"
     inkscape:pageshadow="2"
     inkscape:window-width="1920"
     inkscape:window-height="1027"
     id="namedview28"
     showgrid="false"
     inkscape:zoom="3.5612469"
     inkscape:cx="-12.47586"
     inkscape:cy="-35.403418"
     inkscape:window-x="-8"
     inkscape:window-y="-8"
     inkscape:window-maximized="1"
     inkscape:current-layer="g1248"
     inkscape:document-rotation="0" />
  <g
     stroke-width="0.166667"
     id="g916"
     transform="translate(5442.636,2012.5786)" />
  <g
     id="g987"
     inkscape:label="adobe-experience-manager-seeklogo.com"
     transform="matrix(0.04056964,0,0,-0.04056964,3447.1416,1424.0662)">
    <g
       id="g1023">
      <g
         id="g1155"
         transform="matrix(1.9257011,0,0,-1.9257011,-13328.062,10549.122)">
        <g
           id="g1232"
           transform="matrix(12.8,0,0,12.8,-25216.659,2558.4833)">
          <g
             id="g1248"
             transform="matrix(0.15625,0,0,0.15625,-964.75167,-1121.9065)">
            <g
               id="g1332"
               transform="matrix(21.986831,0,0,21.986831,181.60791,-474.0734)"
               style="fill:#222222;fill-opacity:1">
              <g
                 id="g1274"
                 style="fill:#222222;fill-opacity:1">
                <g
                   id="g1272"
                   style="fill:#222222;fill-opacity:1">
                  <path
                     style="fill:#222222;fill-opacity:1"
                     d="m 5.925,4.982 c -0.442,0 -0.742,0.043 -0.898,0.087 V 7.91 C 5.213,7.952 5.44,7.966 5.754,7.966 6.911,7.966 7.625,7.381 7.625,6.395 7.624,5.511 7.01,4.982 5.925,4.982 Z"
                     id="path1268" />
                  <path
                     style="fill:#222222;fill-opacity:1"
                     d="M 16.4,0.002 H 1.07 C 0.479,0.002 0,0.48 0,1.069 v 15.329 c 0,0.59 0.479,1.069 1.07,1.069 H 16.4 c 0.59,0 1.069,-0.479 1.069,-1.069 V 1.07 C 17.469,0.48 16.99,0.002 16.4,0.002 Z M 8.894,8.624 C 8.153,9.324 7.052,9.638 5.769,9.638 5.482,9.638 5.226,9.624 5.026,9.595 v 3.442 H 2.869 V 3.541 C 3.54,3.428 4.482,3.342 5.811,3.342 c 1.341,0 2.299,0.256 2.94,0.771 0.617,0.486 1.03,1.286 1.03,2.228 0,0.942 -0.315,1.739 -0.887,2.283 z m 3.251,4.555 c -0.916,0 -1.729,-0.198 -2.258,-0.485 l 0.385,-1.556 c 0.4,0.241 1.229,0.527 1.873,0.527 0.655,0 0.927,-0.228 0.927,-0.586 0,-0.356 -0.214,-0.527 -1.027,-0.799 -1.442,-0.485 -2,-1.271 -1.986,-2.099 0,-1.298 1.114,-2.286 2.842,-2.286 0.814,0 1.542,0.187 1.97,0.4 l -0.385,1.5 C 14.172,7.623 13.573,7.396 12.972,7.396 c -0.527,0 -0.826,0.214 -0.826,0.571 0,0.328 0.269,0.499 1.126,0.8 1.328,0.456 1.886,1.128 1.899,2.154 0,1.301 -1.03,2.258 -3.026,2.258 z"
                     id="path1270" />
                </g>
              </g>
              <g
                 id="g1276"
                 style="fill:#222222;fill-opacity:1" />
              <g
                 id="g1278"
                 style="fill:#222222;fill-opacity:1" />
              <g
                 id="g1280"
                 style="fill:#222222;fill-opacity:1" />
              <g
                 id="g1282"
                 style="fill:#222222;fill-opacity:1" />
              <g
                 id="g1284"
                 style="fill:#222222;fill-opacity:1" />
              <g
                 id="g1286"
                 style="fill:#222222;fill-opacity:1" />
              <g
                 id="g1288"
                 style="fill:#222222;fill-opacity:1" />
              <g
                 id="g1290"
                 style="fill:#222222;fill-opacity:1" />
              <g
                 id="g1292"
                 style="fill:#222222;fill-opacity:1" />
              <g
                 id="g1294"
                 style="fill:#222222;fill-opacity:1" />
              <g
                 id="g1296"
                 style="fill:#222222;fill-opacity:1" />
              <g
                 id="g1298"
                 style="fill:#222222;fill-opacity:1" />
              <g
                 id="g1300"
                 style="fill:#222222;fill-opacity:1" />
              <g
                 id="g1302"
                 style="fill:#222222;fill-opacity:1" />
              <g
                 id="g1304"
                 style="fill:#222222;fill-opacity:1" />
            </g>
          </g>
        </g>
      </g>
    </g>
  </g>
</svg>
