<?xml version="1.0" encoding="UTF-8" standalone="no"?>
<svg
   xmlns:dc="http://purl.org/dc/elements/1.1/"
   xmlns:cc="http://creativecommons.org/ns#"
   xmlns:rdf="http://www.w3.org/1999/02/22-rdf-syntax-ns#"
   xmlns:svg="http://www.w3.org/2000/svg"
   xmlns="http://www.w3.org/2000/svg"
   xmlns:sodipodi="http://sodipodi.sourceforge.net/DTD/sodipodi-0.dtd"
   xmlns:inkscape="http://www.inkscape.org/namespaces/inkscape"
   height="60"
   width="114.082"
   version="1.1"
   id="svg26"
   sodipodi:docname="php.svg"
   inkscape:version="1.0.1 (3bc2e813f5, 2020-09-07)">
  <metadata
     id="metadata32">
    <rdf:RDF>
      <cc:Work
         rdf:about="">
        <dc:format>image/svg+xml</dc:format>
        <dc:type
           rdf:resource="http://purl.org/dc/dcmitype/StillImage" />
        <dc:title />
      </cc:Work>
    </rdf:RDF>
  </metadata>
  <defs
     id="defs30">
    <clipPath
       clipPathUnits="userSpaceOnUse"
       id="clipPath995">
      <path
         d="M 0,1500 H 3000 V 0 H 0 Z"
         id="path993" />
    </clipPath>
    <clipPath
       clipPathUnits="userSpaceOnUse"
       id="clipPath1009">
      <path
         d="M 0,1500 H 3000 V 0 H 0 Z"
         id="path1007" />
    </clipPath>
    <clipPath
       clipPathUnits="userSpaceOnUse"
       id="clipPath1029">
      <path
         d="M 0,1500 H 3000 V 0 H 0 Z"
         id="path1027" />
    </clipPath>
  </defs>
  <sodipodi:namedview
     pagecolor="#ffffff"
     bordercolor="#666666"
     borderopacity="1"
     objecttolerance="10"
     gridtolerance="10"
     guidetolerance="10"
     inkscape:pageopacity="0"
     inkscape:pageshadow="2"
     inkscape:window-width="1920"
     inkscape:window-height="1027"
     id="namedview28"
     showgrid="false"
     inkscape:zoom="14.244988"
     inkscape:cx="28.105039"
     inkscape:cy="10.627164"
     inkscape:window-x="-8"
     inkscape:window-y="-8"
     inkscape:window-maximized="1"
     inkscape:current-layer="g1023"
     inkscape:document-rotation="0" />
  <g
     stroke-width="0.166667"
     id="g916"
     transform="translate(2320.5039,785.47761)" />
  <g
     id="g987"
     inkscape:label="adobe-experience-manager-seeklogo.com"
     transform="matrix(0.04056964,0,0,-0.04056964,325.00957,196.96521)">
    <g
       id="g1023">
      <path
         fill="currentColor"
         d="m -6605.1504,4781.1753 c 753.0898,0 1332.1868,-317.2293 1332.1868,-665.6542 0,-348.425 -579.5365,-665.6542 -1332.1868,-665.6542 -753.09,0 -1332.1871,317.2292 -1332.1871,665.6542 0,348.4249 579.5366,665.6542 1332.1871,665.6542 m 0,73.815 c -776.3767,0 -1406.0021,-330.8498 -1406.0021,-739.4692 0,-408.6192 629.6254,-739.4692 1406.0021,-739.4692 776.3768,0 1406.0021,330.85 1406.0021,739.4692 0,408.6194 -629.6253,739.4692 -1406.0021,739.4692 z m -447.2844,-680.1534 c -34.7109,-177.9471 -157.2965,-159.4935 -308.0023,-159.4935 l 60.1942,310.1992 c 166.963,0 280.3218,18.0144 247.8081,-150.7057 z m -530.7659,-473.6471 h 161.2509 l 38.2257,196.8405 c 180.5833,0 292.6241,-13.1813 396.3169,83.9207 114.6769,105.45 144.5544,293.0636 62.8306,387.0899 -42.6193,49.2102 -111.162,73.3756 -204.3097,73.3756 h -310.6384 z m 815.9207,938.5064 h 160.3719 l -38.2255,-196.8402 c 138.4032,0 266.7009,10.1056 328.6529,-47.0132 65.0276,-59.755 33.8318,-136.2065 -36.4681,-496.9338 h -162.5691 c 67.6638,348.8642 80.4059,377.863 55.8007,404.2256 -23.7262,25.4837 -77.7694,20.2111 -208.2641,20.2111 l -82.6025,-424.4367 h -160.3722 z m 974.9744,-464.8593 c -35.1501,-180.5836 -161.2506,-159.4935 -308.0023,-159.4935 l 60.1945,310.1992 c 167.8414,0 280.3217,18.0144 247.8078,-150.7057 z m -530.7657,-473.6471 h 161.6902 l 38.2257,196.8405 c 189.8102,0 294.8213,-10.9847 396.3169,83.9207 114.6769,105.45 144.5544,293.0636 62.8306,387.0899 -42.6193,49.2102 -111.162,73.3756 -204.3097,73.3756 h -310.6387 z"
         id="path1071"
         style="fill:#222222;fill-opacity:1;stroke-width:4.39375" />
    </g>
  </g>
</svg>
