<?xml version="1.0" encoding="UTF-8" standalone="no"?>
<svg
   xmlns:dc="http://purl.org/dc/elements/1.1/"
   xmlns:cc="http://creativecommons.org/ns#"
   xmlns:rdf="http://www.w3.org/1999/02/22-rdf-syntax-ns#"
   xmlns:svg="http://www.w3.org/2000/svg"
   xmlns="http://www.w3.org/2000/svg"
   xmlns:sodipodi="http://sodipodi.sourceforge.net/DTD/sodipodi-0.dtd"
   xmlns:inkscape="http://www.inkscape.org/namespaces/inkscape"
   aria-hidden="true"
   focusable="false"
   data-prefix="fab"
   data-icon="sass"
   class="svg-inline--fa fa-sass fa-w-20"
   role="img"
   viewBox="0 0 79.992646 59.999999"
   version="1.1"
   id="svg4"
   sodipodi:docname="sass.svg"
   width="79.992645"
   height="60"
   inkscape:version="1.0.1 (3bc2e813f5, 2020-09-07)">
  <metadata
     id="metadata10">
    <rdf:RDF>
      <cc:Work
         rdf:about="">
        <dc:format>image/svg+xml</dc:format>
        <dc:type
           rdf:resource="http://purl.org/dc/dcmitype/StillImage" />
        <dc:title />
      </cc:Work>
    </rdf:RDF>
  </metadata>
  <defs
     id="defs8" />
  <sodipodi:namedview
     pagecolor="#ffffff"
     bordercolor="#666666"
     borderopacity="1"
     objecttolerance="10"
     gridtolerance="10"
     guidetolerance="10"
     inkscape:pageopacity="0"
     inkscape:pageshadow="2"
     inkscape:window-width="1920"
     inkscape:window-height="1027"
     id="namedview6"
     showgrid="false"
     inkscape:zoom="3.359375"
     inkscape:cx="-58.686597"
     inkscape:cy="37.020373"
     inkscape:window-x="-8"
     inkscape:window-y="-8"
     inkscape:window-maximized="1"
     inkscape:current-layer="svg4"
     inkscape:document-rotation="0" />
  <path
     fill="currentColor"
     d="m 37.72648,45.360773 c -0.0375,0.07499 -0.07499,0.134988 0,0 z M 68.865192,34.48666 a 16.393664,16.393664 0 0 0 -7.249409,1.687363 c -0.737439,-1.48738 -1.499878,-2.787273 -1.624866,-3.762194 -0.149986,-1.137408 -0.312475,-1.812353 -0.137488,-3.162241 0.174984,-1.349891 0.962423,-3.262234 0.949922,-3.399724 -0.0126,-0.137487 -0.174984,-0.824933 -1.787354,-0.837432 -1.612367,-0.0126 -2.999754,0.312475 -3.160991,0.73744 a 15.352499,15.352499 0 0 0 -0.662447,2.387305 c -0.287477,1.462382 -3.223487,6.686956 -4.885852,9.411734 -0.549955,-1.062413 -1.012418,-1.999838 -1.112409,-2.749776 -0.149986,-1.137408 -0.312475,-1.812353 -0.137487,-3.162244 0.174984,-1.349888 0.962422,-3.262234 0.949923,-3.399721 -0.0126,-0.137487 -0.174983,-0.824933 -1.786105,-0.837432 -1.611118,-0.0124 -2.999755,0.312475 -3.162242,0.737439 -0.162485,0.424967 -0.337472,1.424884 -0.662446,2.387306 -0.324974,0.962422 -4.235905,9.661712 -5.259572,11.924027 -0.524957,1.149907 -0.974919,2.074833 -1.299893,2.699781 -0.04999,0.09999 -0.08749,0.162485 -0.11249,0.212482 0.0375,-0.06249 0.0625,-0.124988 0.0625,-0.09999 -0.274977,0.537455 -0.437464,0.837432 -0.437464,0.837432 v 0.0124 c -0.212482,0.399967 -0.449964,0.762437 -0.562453,0.762437 -0.07499,0 -0.237482,-1.049914 0.0375,-2.487296 0.587452,-3.024754 1.974838,-7.724371 1.96234,-7.886857 -0.0124,-0.08749 0.262479,-0.899927 -0.912425,-1.337392 -1.137409,-0.412465 -1.549874,0.274979 -1.649867,0.274979 -0.09999,0 -0.174984,0.249978 -0.174984,0.249978 0,0 1.262399,-5.299568 -2.423552,-5.299568 -2.299812,0 -5.499552,2.524795 -7.071923,4.812108 -0.98742,0.537456 -3.124745,1.699861 -5.374562,2.93726 -0.862429,0.474962 -1.749858,0.962422 -2.587289,1.424885 -0.0625,-0.06249 -0.112492,-0.124988 -0.174986,-0.187482 C 13.943418,34.599152 5.6840914,31.224426 6.034063,24.812449 6.1590534,22.475139 6.9714865,16.338138 21.916519,8.8887457 34.16552,2.7892418 43.958472,4.4641058 45.644585,8.1888029 48.069387,13.50087 40.408762,23.387564 27.688549,24.812449 c -4.848356,0.537456 -7.396899,-1.337391 -8.034346,-2.037334 -0.662446,-0.73744 -0.762438,-0.774938 -1.012417,-0.637449 -0.412467,0.224981 -0.149988,0.874929 0,1.262399 0.374969,0.987418 1.937341,2.737275 4.598375,3.612205 2.337309,0.762437 8.021845,1.187402 14.895035,-1.47488 C 45.857067,22.562633 51.867827,14.275806 50.105471,7.3388721 48.310618,0.28944674 36.621571,-2.022866 25.568721,1.9018145 18.983008,4.2391248 11.861088,7.9138245 6.7377557,12.700935 0.65200151,18.40047 -0.32166916,23.362566 0.07829825,25.437397 1.5019323,32.799297 11.648605,37.598906 15.709524,41.148618 15.509541,41.261107 15.322056,41.3611 15.14707,41.461092 13.110986,42.47351 5.3753665,46.523179 3.4392743,50.797831 c -2.1873217,4.849604 0.3624706,8.324323 2.0360841,8.799282 5.2233246,1.449883 10.5716386,-1.162403 13.4451546,-5.449554 2.873515,-4.287151 2.524794,-9.886695 1.199901,-12.436488 -0.0124,-0.0375 -0.0375,-0.06249 -0.04999,-0.09999 0.524957,-0.312474 1.062413,-0.624949 1.599871,-0.937424 1.036165,-0.612449 2.048581,-1.174905 2.93601,-1.662365 -0.499959,1.34989 -0.862429,2.974759 -1.049914,5.324566 -0.224983,2.749776 0.912425,6.311986 2.387304,7.711871 0.649947,0.612451 1.436134,0.62495 1.923595,0.62495 1.724859,0 2.499795,-1.424883 3.360974,-3.124745 1.062414,-2.074831 1.999838,-4.487134 1.999838,-4.487134 0,0 -1.174904,6.524468 2.037334,6.524468 1.173655,0 2.348558,-1.512377 2.874765,-2.287314 v 0.0126 c 0,0 0.025,-0.04999 0.08749,-0.149986 0.124988,-0.187482 0.187482,-0.299976 0.187482,-0.299976 v -0.0375 c 0.474962,-0.812435 1.512377,-2.674783 3.0735,-5.749533 2.024835,-3.974676 3.960927,-8.936771 3.960927,-8.936771 a 25.152949,25.152949 0 0 0 0.774938,3.224737 c 0.349971,1.187404 1.08741,2.487297 1.674862,3.749695 -0.47496,0.649945 -0.762437,1.024917 -0.762437,1.024917 a 0.03874685,0.03874685 0 0 0 0.0126,0.025 c -0.374969,0.49996 -0.799936,1.037416 -1.237399,1.562373 -1.598621,1.899845 -3.499716,4.074668 -3.749695,4.699616 -0.299976,0.737441 -0.224981,1.287396 0.349971,1.712361 0.424965,0.324973 1.174905,0.374969 1.96109,0.312474 1.437384,-0.09999 2.449802,-0.449964 2.93726,-0.674945 a 10.274163,10.274163 0 0 0 2.523545,-1.324892 c 1.562373,-1.149905 2.512296,-2.799772 2.424802,-4.974595 -0.05,-1.199902 -0.437463,-2.399805 -0.912425,-3.524712 0.137488,-0.199983 0.287478,-0.412465 0.424965,-0.62495 2.473549,-3.612205 4.385893,-7.576882 4.385893,-7.576882 a 25.152949,25.152949 0 0 0 0.774936,3.224738 c 0.299976,1.012418 0.88618,2.124826 1.423636,3.212239 -2.323562,1.887346 -3.760944,4.074666 -4.260904,5.51205 -0.924923,2.662282 -0.199983,3.862185 1.162406,4.137163 0.612449,0.124988 1.487378,-0.162485 2.137325,-0.437465 A 9.9316906,9.9316906 0 0 0 60.1935,46.008323 c 1.562372,-1.149905 3.073499,-2.762275 2.973507,-4.949597 -0.0375,-0.987418 -0.312475,-1.974838 -0.674945,-2.924762 1.962341,-0.824931 4.510883,-1.274895 7.760617,-0.899926 6.959434,0.812434 8.321823,5.162079 8.059343,6.974433 -0.262477,1.812351 -1.724859,2.824768 -2.212318,3.124745 -0.48746,0.299976 -0.637448,0.412465 -0.599952,0.637448 0.06249,0.324974 0.287477,0.312473 0.699943,0.23748 0.574952,-0.09999 3.648452,-1.474881 3.785941,-4.837105 C 80.185616,39.121382 76.0997,34.446764 68.861538,34.48426 Z M 15.222064,52.572686 c -2.298562,2.512296 -5.5232997,3.462219 -6.9094368,2.662284 -1.4873787,-0.86493 -0.8999266,-4.56213 1.9360918,-7.23941 1.72486,-1.624869 3.948429,-3.124745 5.423309,-4.049671 0.337472,-0.199983 0.824932,-0.499959 1.424883,-0.86243 0.09999,-0.06249 0.149988,-0.08749 0.149988,-0.08749 0.112492,-0.07499 0.237481,-0.137487 0.362471,-0.212484 1.036165,3.799692 0.0375,7.149418 -2.387306,9.786703 z M 32.015696,41.148618 c -0.799935,1.962339 -2.486048,6.961931 -3.510965,6.699454 -0.874928,-0.224981 -1.412384,-4.037172 -0.174984,-7.786865 0.62495,-1.887346 1.949843,-4.137165 2.737277,-5.012093 1.261149,-1.412385 2.648536,-1.862347 2.97351,-1.299893 0.437463,0.737439 -1.524876,6.174497 -2.024838,7.399397 z m 13.87387,6.624459 c -0.337473,0.174983 -0.649948,0.287477 -0.799936,0.199985 -0.112489,-0.06249 0.137488,-0.299976 0.137488,-0.299976 0,0 1.737358,-1.862349 2.424802,-2.71228 0.399967,-0.499959 0.862429,-1.08741 1.361139,-1.737358 0,0.06249 0.0126,0.124989 0.0126,0.199984 -0.0162,2.237317 -2.164825,3.749694 -3.139744,4.349645 z m 10.696628,-2.437301 c -0.249981,-0.174984 -0.212483,-0.762437 0.624949,-2.587289 0.324972,-0.712442 1.073662,-1.912344 2.374805,-3.062251 a 4.5221314,4.5221314 0 0 1 0.237482,1.34989 c -0.0126,2.812272 -2.024835,3.862186 -3.235986,4.29965 z"
     id="path2"
     style="fill:#222222;fill-opacity:1;stroke-width:0.12499" />
</svg>
